<svg width="1440" height="669" viewBox="0 0 1440 669" fill="none" xmlns="http://www.w3.org/2000/svg">
<path d="M755.996 271.893L756.696 272.353C755.326 273.343 753.236 274.253 751.566 274.783C751.456 274.573 751.226 274.273 751.026 274.073C752.666 273.623 754.806 272.763 755.996 271.893ZM756.416 274.433L757.146 274.853C755.836 276.063 753.756 277.073 751.906 277.673C751.786 277.463 751.576 277.163 751.366 276.963C753.166 276.453 755.276 275.503 756.416 274.433ZM757.296 276.953L758.016 277.373C756.536 279.103 754.026 280.273 751.336 280.903C751.236 280.683 751.046 280.353 750.856 280.143C753.466 279.603 755.956 278.523 757.296 276.953Z" fill="#D1001B" fill-opacity="0.5"/>
<path d="M923.035 491.76V490.94H925.015V485.21L923.035 486.69V485.69L924.685 484.46H925.915V490.94H927.535V491.76H923.035Z" fill="#D1001B" fill-opacity="0.5"/>
<path d="M1362.93 616.936C1362.48 616.936 1362.09 616.849 1361.76 616.676C1361.43 616.496 1361.18 616.246 1361 615.926C1360.82 615.599 1360.73 615.219 1360.73 614.786V611.586C1360.73 611.146 1360.82 610.766 1361 610.446C1361.18 610.126 1361.43 609.879 1361.76 609.706C1362.09 609.526 1362.48 609.436 1362.93 609.436C1363.38 609.436 1363.77 609.526 1364.1 609.706C1364.43 609.879 1364.68 610.126 1364.86 610.446C1365.04 610.766 1365.13 611.146 1365.13 611.586V614.786C1365.13 615.219 1365.04 615.599 1364.86 615.926C1364.68 616.246 1364.42 616.496 1364.09 616.676C1363.76 616.849 1363.38 616.936 1362.93 616.936ZM1362.93 616.166C1363.33 616.166 1363.65 616.039 1363.89 615.786C1364.14 615.526 1364.26 615.192 1364.26 614.786V611.586C1364.26 611.179 1364.14 610.849 1363.89 610.596C1363.65 610.336 1363.33 610.206 1362.93 610.206C1362.53 610.206 1362.21 610.336 1361.96 610.596C1361.72 610.849 1361.6 611.179 1361.6 611.586V614.786C1361.6 615.192 1361.72 615.526 1361.96 615.786C1362.21 616.039 1362.53 616.166 1362.93 616.166ZM1362.93 613.776C1362.75 613.776 1362.6 613.719 1362.49 613.606C1362.38 613.492 1362.33 613.342 1362.33 613.156C1362.33 612.976 1362.38 612.832 1362.49 612.726C1362.6 612.612 1362.75 612.556 1362.93 612.556C1363.11 612.556 1363.25 612.612 1363.36 612.726C1363.47 612.832 1363.53 612.976 1363.53 613.156C1363.53 613.342 1363.47 613.492 1363.36 613.606C1363.25 613.719 1363.11 613.776 1362.93 613.776Z" fill="#D1001B" fill-opacity="0.5"/>
<path d="M975.595 427.741H980.555V428.361H975.595V427.741ZM975.405 429.451H980.765V430.091H975.405V429.451ZM978.735 427.941H979.415V432.331H978.735V427.941ZM976.685 427.971H977.335V429.791C977.335 430.401 977.095 431.711 975.965 432.471C975.865 432.331 975.635 432.121 975.465 432.021C976.475 431.401 976.685 430.341 976.685 429.791V427.971ZM974.355 425.131H977.165V425.671H974.355V425.131ZM978.965 425.131H981.795V425.671H978.965V425.131ZM981.505 423.741H982.245V431.541C982.245 431.991 982.145 432.231 981.845 432.361C981.545 432.491 981.045 432.501 980.285 432.501C980.255 432.301 980.155 431.951 980.045 431.741C980.595 431.761 981.135 431.761 981.295 431.751C981.455 431.751 981.505 431.691 981.505 431.541V423.741ZM974.415 423.741H977.625V427.111H974.415V426.541H976.915V424.321H974.415V423.741ZM981.865 423.741V424.321H979.225V426.551H981.865V427.121H978.505V423.741H981.865ZM973.965 423.741H974.705V432.521H973.965V423.741Z" fill="#D1001B" fill-opacity="0.5"/>
<path d="M244.658 458.303H250.158V459.013H244.658V458.303ZM243.658 455.173H246.638V455.843H243.658V455.173ZM243.398 460.513H251.378V461.203H243.398V460.513ZM246.378 455.173H246.518L246.658 455.143L247.158 455.383C246.428 457.363 244.788 458.783 243.158 459.513C243.058 459.343 242.838 459.083 242.688 458.943C244.188 458.333 245.768 456.953 246.378 455.323V455.173ZM245.728 458.643H246.468V460.353C246.468 461.743 246.148 463.133 243.678 463.993C243.578 463.823 243.348 463.543 243.188 463.403C245.458 462.643 245.728 461.473 245.728 460.343V458.643ZM248.198 454.783C248.898 456.593 250.338 458.173 252.118 458.863C251.948 459.023 251.718 459.313 251.598 459.503C249.778 458.693 248.328 457.003 247.538 454.973L248.198 454.783ZM243.518 456.593L243.998 456.183C244.468 456.513 245.058 456.993 245.348 457.303L244.848 457.753C244.568 457.443 243.988 456.943 243.518 456.593ZM250.058 454.853L250.638 455.253C250.128 455.763 249.458 456.323 248.948 456.673L248.488 456.313C248.988 455.943 249.678 455.313 250.058 454.853ZM251.248 456.003L251.808 456.403C251.258 456.923 250.538 457.493 249.978 457.873L249.518 457.513C250.068 457.133 250.818 456.473 251.248 456.003ZM248.218 458.663H248.988V462.813C248.988 463.133 249.048 463.193 249.398 463.193C249.548 463.193 250.338 463.193 250.538 463.193C250.858 463.193 250.908 462.993 250.948 461.923C251.118 462.053 251.418 462.183 251.628 462.223C251.558 463.513 251.348 463.873 250.608 463.873C250.418 463.873 249.468 463.873 249.288 463.873C248.438 463.873 248.218 463.643 248.218 462.813V458.663Z" fill="#D1001B" fill-opacity="0.5"/>
<path d="M849.492 619.31H858.402V619.98H849.492V619.31ZM850.372 617.35H856.162V618.02H850.372V617.35ZM851.992 622.66H856.702V623.26H851.992V622.66ZM851.992 624.32H856.702V624.97H851.992V624.32ZM852.942 616.09H853.672V619.67H852.942V616.09ZM857.322 616.44L857.962 616.78C855.952 619.41 852.942 621.38 849.742 622.61C849.652 622.44 849.412 622.13 849.262 621.98C852.492 620.86 855.472 618.92 857.322 616.44ZM851.582 621.04H857.182V625.26H856.402V621.67H852.332V625.3H851.582V621.04Z" fill="#D1001B" fill-opacity="0.5"/>
<path d="M918.6 639.094L919.3 639.554C917.93 640.544 915.84 641.454 914.17 641.984C914.06 641.774 913.83 641.474 913.63 641.274C915.27 640.824 917.41 639.964 918.6 639.094ZM919.02 641.634L919.75 642.054C918.44 643.264 916.36 644.274 914.51 644.874C914.39 644.664 914.18 644.364 913.97 644.164C915.77 643.654 917.88 642.704 919.02 641.634ZM919.9 644.154L920.62 644.574C919.14 646.304 916.63 647.474 913.94 648.104C913.84 647.884 913.65 647.554 913.46 647.344C916.07 646.804 918.56 645.724 919.9 644.154Z" fill="#D1001B" fill-opacity="0.5"/>
<path d="M584.193 109.602V108.782H586.173V103.052L584.193 104.532V103.532L585.843 102.302H587.073V108.782H588.693V109.602H584.193Z" fill="#D1001B" fill-opacity="0.5"/>
<path d="M1207.15 114.201C1206.7 114.201 1206.31 114.115 1205.98 113.941C1205.65 113.761 1205.4 113.511 1205.22 113.191C1205.04 112.865 1204.95 112.485 1204.95 112.051V108.851C1204.95 108.411 1205.04 108.031 1205.22 107.711C1205.4 107.391 1205.65 107.145 1205.98 106.971C1206.31 106.791 1206.7 106.701 1207.15 106.701C1207.6 106.701 1207.99 106.791 1208.32 106.971C1208.64 107.145 1208.9 107.391 1209.08 107.711C1209.26 108.031 1209.35 108.411 1209.35 108.851V112.051C1209.35 112.485 1209.26 112.865 1209.08 113.191C1208.9 113.511 1208.64 113.761 1208.31 113.941C1207.98 114.115 1207.59 114.201 1207.15 114.201ZM1207.15 113.431C1207.55 113.431 1207.87 113.305 1208.11 113.051C1208.35 112.791 1208.48 112.458 1208.48 112.051V108.851C1208.48 108.445 1208.35 108.115 1208.11 107.861C1207.87 107.601 1207.55 107.471 1207.15 107.471C1206.75 107.471 1206.42 107.601 1206.18 107.861C1205.94 108.115 1205.82 108.445 1205.82 108.851V112.051C1205.82 112.458 1205.94 112.791 1206.18 113.051C1206.42 113.305 1206.75 113.431 1207.15 113.431ZM1207.15 111.041C1206.97 111.041 1206.82 110.985 1206.71 110.871C1206.6 110.758 1206.55 110.608 1206.55 110.421C1206.55 110.241 1206.6 110.098 1206.71 109.991C1206.82 109.878 1206.97 109.821 1207.15 109.821C1207.33 109.821 1207.47 109.878 1207.58 109.991C1207.69 110.098 1207.75 110.241 1207.75 110.421C1207.75 110.608 1207.69 110.758 1207.58 110.871C1207.47 110.985 1207.33 111.041 1207.15 111.041Z" fill="#D1001B" fill-opacity="0.5"/>
<path d="M1026.3 133.783H1031.26V134.403H1026.3V133.783ZM1026.11 135.493H1031.47V136.133H1026.11V135.493ZM1029.44 133.983H1030.12V138.373H1029.44V133.983ZM1027.39 134.013H1028.04V135.833C1028.04 136.443 1027.8 137.753 1026.67 138.513C1026.57 138.373 1026.34 138.163 1026.17 138.063C1027.18 137.443 1027.39 136.383 1027.39 135.833V134.013ZM1025.06 131.173H1027.87V131.713H1025.06V131.173ZM1029.67 131.173H1032.5V131.713H1029.67V131.173ZM1032.21 129.783H1032.95V137.583C1032.95 138.033 1032.85 138.273 1032.55 138.403C1032.25 138.533 1031.75 138.543 1030.99 138.543C1030.96 138.343 1030.86 137.993 1030.75 137.783C1031.3 137.803 1031.84 137.803 1032 137.793C1032.16 137.793 1032.21 137.733 1032.21 137.583V129.783ZM1025.12 129.783H1028.33V133.153H1025.12V132.583H1027.62V130.363H1025.12V129.783ZM1032.57 129.783V130.363H1029.93V132.593H1032.57V133.163H1029.21V129.783H1032.57ZM1024.67 129.783H1025.41V138.563H1024.67V129.783Z" fill="#D1001B" fill-opacity="0.5"/>
<path d="M1115.99 661.16H1121.49V661.87H1115.99V661.16ZM1114.99 658.03H1117.97V658.7H1114.99V658.03ZM1114.73 663.37H1122.71V664.06H1114.73V663.37ZM1117.71 658.03H1117.85L1117.99 658L1118.49 658.24C1117.76 660.22 1116.12 661.64 1114.49 662.37C1114.39 662.2 1114.17 661.94 1114.02 661.8C1115.52 661.19 1117.1 659.81 1117.71 658.18V658.03ZM1117.06 661.5H1117.8V663.21C1117.8 664.6 1117.48 665.99 1115.01 666.85C1114.91 666.68 1114.68 666.4 1114.52 666.26C1116.79 665.5 1117.06 664.33 1117.06 663.2V661.5ZM1119.53 657.64C1120.23 659.45 1121.67 661.03 1123.45 661.72C1123.28 661.88 1123.05 662.17 1122.93 662.36C1121.11 661.55 1119.66 659.86 1118.87 657.83L1119.53 657.64ZM1114.85 659.45L1115.33 659.04C1115.8 659.37 1116.39 659.85 1116.68 660.16L1116.18 660.61C1115.9 660.3 1115.32 659.8 1114.85 659.45ZM1121.39 657.71L1121.97 658.11C1121.46 658.62 1120.79 659.18 1120.28 659.53L1119.82 659.17C1120.32 658.8 1121.01 658.17 1121.39 657.71ZM1122.58 658.86L1123.14 659.26C1122.59 659.78 1121.87 660.35 1121.31 660.73L1120.85 660.37C1121.4 659.99 1122.15 659.33 1122.58 658.86ZM1119.55 661.52H1120.32V665.67C1120.32 665.99 1120.38 666.05 1120.73 666.05C1120.88 666.05 1121.67 666.05 1121.87 666.05C1122.19 666.05 1122.24 665.85 1122.28 664.78C1122.45 664.91 1122.75 665.04 1122.96 665.08C1122.89 666.37 1122.68 666.73 1121.94 666.73C1121.75 666.73 1120.8 666.73 1120.62 666.73C1119.77 666.73 1119.55 666.5 1119.55 665.67V661.52Z" fill="#D1001B" fill-opacity="0.5"/>
<path d="M294.79 650.779H303.7V651.449H294.79V650.779ZM295.67 648.819H301.46V649.489H295.67V648.819ZM297.29 654.129H302V654.729H297.29V654.129ZM297.29 655.789H302V656.439H297.29V655.789ZM298.24 647.559H298.97V651.139H298.24V647.559ZM302.62 647.909L303.26 648.249C301.25 650.879 298.24 652.849 295.04 654.079C294.95 653.909 294.71 653.599 294.56 653.449C297.79 652.329 300.77 650.389 302.62 647.909ZM296.88 652.509H302.48V656.729H301.7V653.139H297.63V656.769H296.88V652.509Z" fill="#D1001B" fill-opacity="0.5"/>
<path d="M724.551 557.068L725.251 557.528C723.881 558.518 721.791 559.428 720.121 559.958C720.011 559.748 719.781 559.448 719.581 559.248C721.221 558.798 723.361 557.938 724.551 557.068ZM724.971 559.608L725.701 560.028C724.391 561.238 722.311 562.248 720.461 562.848C720.341 562.638 720.131 562.338 719.921 562.138C721.721 561.628 723.831 560.678 724.971 559.608ZM725.851 562.128L726.571 562.548C725.091 564.278 722.581 565.448 719.891 566.078C719.791 565.858 719.601 565.528 719.411 565.318C722.021 564.778 724.511 563.698 725.851 562.128Z" fill="#D1001B" fill-opacity="0.5"/>
<path d="M1282.09 328.726V327.906H1284.07V322.176L1282.09 323.656V322.656L1283.74 321.426H1284.97V327.906H1286.59V328.726H1282.09Z" fill="#D1001B" fill-opacity="0.5"/>
<path d="M242.24 598.355C241.793 598.355 241.403 598.268 241.07 598.095C240.743 597.915 240.49 597.665 240.31 597.345C240.13 597.018 240.04 596.638 240.04 596.205V593.005C240.04 592.565 240.13 592.185 240.31 591.865C240.49 591.545 240.743 591.298 241.07 591.125C241.403 590.945 241.793 590.855 242.24 590.855C242.693 590.855 243.083 590.945 243.41 591.125C243.736 591.298 243.99 591.545 244.17 591.865C244.35 592.185 244.44 592.565 244.44 593.005V596.205C244.44 596.638 244.35 597.018 244.17 597.345C243.99 597.665 243.733 597.915 243.4 598.095C243.073 598.268 242.686 598.355 242.24 598.355ZM242.24 597.585C242.64 597.585 242.96 597.458 243.2 597.205C243.446 596.945 243.57 596.612 243.57 596.205V593.005C243.57 592.598 243.446 592.268 243.2 592.015C242.96 591.755 242.64 591.625 242.24 591.625C241.84 591.625 241.516 591.755 241.27 592.015C241.03 592.268 240.91 592.598 240.91 593.005V596.205C240.91 596.612 241.03 596.945 241.27 597.205C241.516 597.458 241.84 597.585 242.24 597.585ZM242.24 595.195C242.06 595.195 241.913 595.138 241.8 595.025C241.693 594.912 241.64 594.762 241.64 594.575C241.64 594.395 241.693 594.252 241.8 594.145C241.913 594.032 242.06 593.975 242.24 593.975C242.42 593.975 242.563 594.032 242.67 594.145C242.783 594.252 242.84 594.395 242.84 594.575C242.84 594.762 242.783 594.912 242.67 595.025C242.563 595.138 242.42 595.195 242.24 595.195Z" fill="#D1001B" fill-opacity="0.5"/>
<path d="M806.15 261.154H811.11V261.774H806.15V261.154ZM805.96 262.864H811.32V263.504H805.96V262.864ZM809.29 261.354H809.97V265.744H809.29V261.354ZM807.24 261.384H807.89V263.204C807.89 263.814 807.65 265.124 806.52 265.884C806.42 265.744 806.19 265.534 806.02 265.434C807.03 264.814 807.24 263.754 807.24 263.204V261.384ZM804.91 258.544H807.72V259.084H804.91V258.544ZM809.52 258.544H812.35V259.084H809.52V258.544ZM812.06 257.154H812.8V264.954C812.8 265.404 812.7 265.644 812.4 265.774C812.1 265.904 811.6 265.914 810.84 265.914C810.81 265.714 810.71 265.364 810.6 265.154C811.15 265.174 811.69 265.174 811.85 265.164C812.01 265.164 812.06 265.104 812.06 264.954V257.154ZM804.97 257.154H808.18V260.524H804.97V259.954H807.47V257.734H804.97V257.154ZM812.42 257.154V257.734H809.78V259.964H812.42V260.534H809.06V257.154H812.42ZM804.52 257.154H805.26V265.934H804.52V257.154Z" fill="#D1001B" fill-opacity="0.5"/>
<path d="M1311.96 127.26H1317.46V127.97H1311.96V127.26ZM1310.96 124.13H1313.94V124.8H1310.96V124.13ZM1310.7 129.47H1318.68V130.16H1310.7V129.47ZM1313.68 124.13H1313.82L1313.96 124.1L1314.46 124.34C1313.73 126.32 1312.09 127.74 1310.46 128.47C1310.36 128.3 1310.14 128.04 1309.99 127.9C1311.49 127.29 1313.07 125.91 1313.68 124.28V124.13ZM1313.03 127.6H1313.77V129.31C1313.77 130.7 1313.45 132.09 1310.98 132.95C1310.88 132.78 1310.65 132.5 1310.49 132.36C1312.76 131.6 1313.03 130.43 1313.03 129.3V127.6ZM1315.5 123.74C1316.2 125.55 1317.64 127.13 1319.42 127.82C1319.25 127.98 1319.02 128.27 1318.9 128.46C1317.08 127.65 1315.63 125.96 1314.84 123.93L1315.5 123.74ZM1310.82 125.55L1311.3 125.14C1311.77 125.47 1312.36 125.95 1312.65 126.26L1312.15 126.71C1311.87 126.4 1311.29 125.9 1310.82 125.55ZM1317.36 123.81L1317.94 124.21C1317.43 124.72 1316.76 125.28 1316.25 125.63L1315.79 125.27C1316.29 124.9 1316.98 124.27 1317.36 123.81ZM1318.55 124.96L1319.11 125.36C1318.56 125.88 1317.84 126.45 1317.28 126.83L1316.82 126.47C1317.37 126.09 1318.12 125.43 1318.55 124.96ZM1315.52 127.62H1316.29V131.77C1316.29 132.09 1316.35 132.15 1316.7 132.15C1316.85 132.15 1317.64 132.15 1317.84 132.15C1318.16 132.15 1318.21 131.95 1318.25 130.88C1318.42 131.01 1318.72 131.14 1318.93 131.18C1318.86 132.47 1318.65 132.83 1317.91 132.83C1317.72 132.83 1316.77 132.83 1316.59 132.83C1315.74 132.83 1315.52 132.6 1315.52 131.77V127.62Z" fill="#D1001B" fill-opacity="0.5"/>
<path d="M545.148 588.285H554.058V588.955H545.148V588.285ZM546.028 586.325H551.818V586.995H546.028V586.325ZM547.648 591.635H552.358V592.235H547.648V591.635ZM547.648 593.295H552.358V593.945H547.648V593.295ZM548.598 585.065H549.328V588.645H548.598V585.065ZM552.978 585.415L553.618 585.755C551.608 588.385 548.598 590.355 545.398 591.585C545.308 591.415 545.068 591.105 544.918 590.955C548.148 589.835 551.128 587.895 552.978 585.415ZM547.238 590.015H552.838V594.235H552.058V590.645H547.988V594.275H547.238V590.015Z" fill="#D1001B" fill-opacity="0.5"/>
<path d="M459.79 294.156L460.49 294.616C459.12 295.606 457.03 296.516 455.36 297.046C455.25 296.836 455.02 296.536 454.82 296.336C456.46 295.886 458.6 295.026 459.79 294.156ZM460.21 296.696L460.94 297.116C459.63 298.326 457.55 299.336 455.7 299.936C455.58 299.726 455.37 299.426 455.16 299.226C456.96 298.716 459.07 297.766 460.21 296.696ZM461.09 299.216L461.81 299.636C460.33 301.366 457.82 302.536 455.13 303.166C455.03 302.946 454.84 302.616 454.65 302.406C457.26 301.866 459.75 300.786 461.09 299.216Z" fill="#D1001B" fill-opacity="0.5"/>
<path d="M1390.57 78.406V77.586H1392.55V71.856L1390.57 73.336V72.336L1392.22 71.106H1393.45V77.586H1395.07V78.406H1390.57Z" fill="#D1001B" fill-opacity="0.5"/>
<path d="M738.134 99.1959C737.687 99.1959 737.297 99.1093 736.964 98.9359C736.637 98.7559 736.384 98.5059 736.204 98.1859C736.024 97.8593 735.934 97.4793 735.934 97.0459V93.8459C735.934 93.4059 736.024 93.0259 736.204 92.7059C736.384 92.3859 736.637 92.1393 736.964 91.9659C737.297 91.7859 737.687 91.6959 738.134 91.6959C738.587 91.6959 738.977 91.7859 739.304 91.9659C739.631 92.1393 739.884 92.3859 740.064 92.7059C740.244 93.0259 740.334 93.4059 740.334 93.8459V97.0459C740.334 97.4793 740.244 97.8593 740.064 98.1859C739.884 98.5059 739.627 98.7559 739.294 98.9359C738.967 99.1093 738.581 99.1959 738.134 99.1959ZM738.134 98.4259C738.534 98.4259 738.854 98.2993 739.094 98.0459C739.341 97.7859 739.464 97.4526 739.464 97.0459V93.8459C739.464 93.4393 739.341 93.1093 739.094 92.8559C738.854 92.5959 738.534 92.4659 738.134 92.4659C737.734 92.4659 737.411 92.5959 737.164 92.8559C736.924 93.1093 736.804 93.4393 736.804 93.8459V97.0459C736.804 97.4526 736.924 97.7859 737.164 98.0459C737.411 98.2993 737.734 98.4259 738.134 98.4259ZM738.134 96.0359C737.954 96.0359 737.807 95.9793 737.694 95.8659C737.587 95.7526 737.534 95.6026 737.534 95.4159C737.534 95.2359 737.587 95.0926 737.694 94.9859C737.807 94.8726 737.954 94.8159 738.134 94.8159C738.314 94.8159 738.457 94.8726 738.564 94.9859C738.677 95.0926 738.734 95.2359 738.734 95.4159C738.734 95.6026 738.677 95.7526 738.564 95.8659C738.457 95.9793 738.314 96.0359 738.134 96.0359Z" fill="#D1001B" fill-opacity="0.5"/>
<path d="M311.907 305.5H316.867V306.12H311.907V305.5ZM311.717 307.21H317.077V307.85H311.717V307.21ZM315.047 305.7H315.727V310.09H315.047V305.7ZM312.997 305.73H313.647V307.55C313.647 308.16 313.407 309.47 312.277 310.23C312.177 310.09 311.947 309.88 311.777 309.78C312.787 309.16 312.997 308.1 312.997 307.55V305.73ZM310.667 302.89H313.477V303.43H310.667V302.89ZM315.277 302.89H318.107V303.43H315.277V302.89ZM317.817 301.5H318.557V309.3C318.557 309.75 318.457 309.99 318.157 310.12C317.857 310.25 317.357 310.26 316.597 310.26C316.567 310.06 316.467 309.71 316.357 309.5C316.907 309.52 317.447 309.52 317.607 309.51C317.767 309.51 317.817 309.45 317.817 309.3V301.5ZM310.727 301.5H313.937V304.87H310.727V304.3H313.227V302.08H310.727V301.5ZM318.177 301.5V302.08H315.537V304.31H318.177V304.88H314.817V301.5H318.177ZM310.277 301.5H311.017V310.28H310.277V301.5Z" fill="#D1001B" fill-opacity="0.5"/>
<path d="M1247.43 486.716H1252.93V487.426H1247.43V486.716ZM1246.43 483.586H1249.41V484.256H1246.43V483.586ZM1246.17 488.926H1254.15V489.616H1246.17V488.926ZM1249.15 483.586H1249.29L1249.43 483.556L1249.93 483.796C1249.2 485.776 1247.56 487.196 1245.93 487.926C1245.83 487.756 1245.61 487.496 1245.46 487.356C1246.96 486.746 1248.54 485.366 1249.15 483.736V483.586ZM1248.5 487.056H1249.24V488.766C1249.24 490.156 1248.92 491.546 1246.45 492.406C1246.35 492.236 1246.12 491.956 1245.96 491.816C1248.23 491.056 1248.5 489.886 1248.5 488.756V487.056ZM1250.97 483.196C1251.67 485.006 1253.11 486.586 1254.89 487.276C1254.72 487.436 1254.49 487.726 1254.37 487.916C1252.55 487.106 1251.1 485.416 1250.31 483.386L1250.97 483.196ZM1246.29 485.006L1246.77 484.596C1247.24 484.926 1247.83 485.406 1248.12 485.716L1247.62 486.166C1247.34 485.856 1246.76 485.356 1246.29 485.006ZM1252.83 483.266L1253.41 483.666C1252.9 484.176 1252.23 484.736 1251.72 485.086L1251.26 484.726C1251.76 484.356 1252.45 483.726 1252.83 483.266ZM1254.02 484.416L1254.58 484.816C1254.03 485.336 1253.31 485.906 1252.75 486.286L1252.29 485.926C1252.84 485.546 1253.59 484.886 1254.02 484.416ZM1250.99 487.076H1251.76V491.226C1251.76 491.546 1251.82 491.606 1252.17 491.606C1252.32 491.606 1253.11 491.606 1253.31 491.606C1253.63 491.606 1253.68 491.406 1253.72 490.336C1253.89 490.466 1254.19 490.596 1254.4 490.636C1254.33 491.926 1254.12 492.286 1253.38 492.286C1253.19 492.286 1252.24 492.286 1252.06 492.286C1251.21 492.286 1250.99 492.056 1250.99 491.226V487.076Z" fill="#D1001B" fill-opacity="0.5"/>
<path d="M733.43 364.507H742.34V365.177H733.43V364.507ZM734.31 362.547H740.1V363.217H734.31V362.547ZM735.93 367.857H740.64V368.457H735.93V367.857ZM735.93 369.517H740.64V370.167H735.93V369.517ZM736.88 361.287H737.61V364.867H736.88V361.287ZM741.26 361.637L741.9 361.977C739.89 364.607 736.88 366.577 733.68 367.807C733.59 367.637 733.35 367.327 733.2 367.177C736.43 366.057 739.41 364.117 741.26 361.637ZM735.52 366.237H741.12V370.457H740.34V366.867H736.27V370.497H735.52V366.237Z" fill="#D1001B" fill-opacity="0.5"/>
<path d="M42.4984 587.285L43.1984 587.745C41.8284 588.735 39.7384 589.645 38.0684 590.175C37.9584 589.965 37.7284 589.665 37.5284 589.465C39.1684 589.015 41.3084 588.155 42.4984 587.285ZM42.9184 589.825L43.6484 590.245C42.3384 591.455 40.2584 592.465 38.4084 593.065C38.2884 592.855 38.0784 592.555 37.8684 592.355C39.6684 591.845 41.7784 590.895 42.9184 589.825ZM43.7984 592.345L44.5184 592.765C43.0384 594.495 40.5284 595.665 37.8384 596.295C37.7384 596.075 37.5484 595.745 37.3584 595.535C39.9684 594.995 42.4584 593.915 43.7984 592.345Z" fill="#D1001B" fill-opacity="0.5"/>
<path d="M1309.88 291.577V290.757H1311.86V285.027L1309.88 286.507V285.507L1311.53 284.277H1312.76V290.757H1314.38V291.577H1309.88Z" fill="#D1001B" fill-opacity="0.5"/>
<path d="M1345.89 262.89C1345.44 262.89 1345.05 262.804 1344.72 262.63C1344.39 262.45 1344.14 262.2 1343.96 261.88C1343.78 261.554 1343.69 261.174 1343.69 260.74V257.54C1343.69 257.1 1343.78 256.72 1343.96 256.4C1344.14 256.08 1344.39 255.834 1344.72 255.66C1345.05 255.48 1345.44 255.39 1345.89 255.39C1346.34 255.39 1346.73 255.48 1347.06 255.66C1347.38 255.834 1347.64 256.08 1347.82 256.4C1348 256.72 1348.09 257.1 1348.09 257.54V260.74C1348.09 261.174 1348 261.554 1347.82 261.88C1347.64 262.2 1347.38 262.45 1347.05 262.63C1346.72 262.804 1346.33 262.89 1345.89 262.89ZM1345.89 262.12C1346.29 262.12 1346.61 261.994 1346.85 261.74C1347.09 261.48 1347.22 261.147 1347.22 260.74V257.54C1347.22 257.134 1347.09 256.804 1346.85 256.55C1346.61 256.29 1346.29 256.16 1345.89 256.16C1345.49 256.16 1345.16 256.29 1344.92 256.55C1344.68 256.804 1344.56 257.134 1344.56 257.54V260.74C1344.56 261.147 1344.68 261.48 1344.92 261.74C1345.16 261.994 1345.49 262.12 1345.89 262.12ZM1345.89 259.73C1345.71 259.73 1345.56 259.674 1345.45 259.56C1345.34 259.447 1345.29 259.297 1345.29 259.11C1345.29 258.93 1345.34 258.787 1345.45 258.68C1345.56 258.567 1345.71 258.51 1345.89 258.51C1346.07 258.51 1346.21 258.567 1346.32 258.68C1346.43 258.787 1346.49 258.93 1346.49 259.11C1346.49 259.297 1346.43 259.447 1346.32 259.56C1346.21 259.674 1346.07 259.73 1345.89 259.73Z" fill="#D1001B" fill-opacity="0.5"/>
<path d="M872.214 259.522H877.174V260.142H872.214V259.522ZM872.024 261.232H877.384V261.872H872.024V261.232ZM875.354 259.722H876.034V264.112H875.354V259.722ZM873.304 259.752H873.954V261.572C873.954 262.182 873.714 263.492 872.584 264.252C872.484 264.112 872.254 263.902 872.084 263.802C873.094 263.182 873.304 262.122 873.304 261.572V259.752ZM870.974 256.912H873.784V257.452H870.974V256.912ZM875.584 256.912H878.414V257.452H875.584V256.912ZM878.124 255.522H878.864V263.322C878.864 263.772 878.764 264.012 878.464 264.142C878.164 264.272 877.664 264.282 876.904 264.282C876.874 264.082 876.774 263.732 876.664 263.522C877.214 263.542 877.754 263.542 877.914 263.532C878.074 263.532 878.124 263.472 878.124 263.322V255.522ZM871.034 255.522H874.244V258.892H871.034V258.322H873.534V256.102H871.034V255.522ZM878.484 255.522V256.102H875.844V258.332H878.484V258.902H875.124V255.522H878.484ZM870.584 255.522H871.324V264.302H870.584V255.522Z" fill="#D1001B" fill-opacity="0.5"/>
<path d="M1327.8 480.733H1333.3V481.443H1327.8V480.733ZM1326.8 477.603H1329.78V478.273H1326.8V477.603ZM1326.54 482.943H1334.52V483.633H1326.54V482.943ZM1329.52 477.603H1329.66L1329.8 477.573L1330.3 477.813C1329.57 479.793 1327.93 481.213 1326.3 481.943C1326.2 481.773 1325.98 481.513 1325.83 481.373C1327.33 480.763 1328.91 479.383 1329.52 477.753V477.603ZM1328.87 481.073H1329.61V482.783C1329.61 484.173 1329.29 485.563 1326.82 486.423C1326.72 486.253 1326.49 485.973 1326.33 485.833C1328.6 485.073 1328.87 483.903 1328.87 482.773V481.073ZM1331.34 477.213C1332.04 479.023 1333.48 480.603 1335.26 481.293C1335.09 481.453 1334.86 481.743 1334.74 481.933C1332.92 481.123 1331.47 479.433 1330.68 477.403L1331.34 477.213ZM1326.66 479.023L1327.14 478.613C1327.61 478.943 1328.2 479.423 1328.49 479.733L1327.99 480.183C1327.71 479.873 1327.13 479.373 1326.66 479.023ZM1333.2 477.283L1333.78 477.683C1333.27 478.193 1332.6 478.753 1332.09 479.103L1331.63 478.743C1332.13 478.373 1332.82 477.743 1333.2 477.283ZM1334.39 478.433L1334.95 478.833C1334.4 479.353 1333.68 479.923 1333.12 480.303L1332.66 479.943C1333.21 479.563 1333.96 478.903 1334.39 478.433ZM1331.36 481.093H1332.13V485.243C1332.13 485.563 1332.19 485.623 1332.54 485.623C1332.69 485.623 1333.48 485.623 1333.68 485.623C1334 485.623 1334.05 485.423 1334.09 484.353C1334.26 484.483 1334.56 484.613 1334.77 484.653C1334.7 485.943 1334.49 486.303 1333.75 486.303C1333.56 486.303 1332.61 486.303 1332.43 486.303C1331.58 486.303 1331.36 486.073 1331.36 485.243V481.093Z" fill="#D1001B" fill-opacity="0.5"/>
<path d="M74.8745 238.204H83.7845V238.874H74.8745V238.204ZM75.7545 236.244H81.5445V236.914H75.7545V236.244ZM77.3745 241.554H82.0845V242.154H77.3745V241.554ZM77.3745 243.214H82.0845V243.864H77.3745V243.214ZM78.3245 234.984H79.0545V238.564H78.3245V234.984ZM82.7045 235.334L83.3445 235.674C81.3345 238.304 78.3245 240.274 75.1245 241.504C75.0345 241.334 74.7945 241.024 74.6445 240.874C77.8745 239.754 80.8545 237.814 82.7045 235.334ZM76.9645 239.934H82.5645V244.154H81.7845V240.564H77.7145V244.194H76.9645V239.934Z" fill="#D1001B" fill-opacity="0.5"/>
<path d="M187.344 95.0791L188.044 95.5391C186.674 96.5291 184.584 97.4391 182.914 97.9691C182.804 97.7591 182.574 97.4591 182.374 97.2591C184.014 96.8091 186.154 95.9491 187.344 95.0791ZM187.764 97.6191L188.494 98.0391C187.184 99.2491 185.104 100.259 183.254 100.859C183.134 100.649 182.924 100.349 182.714 100.149C184.514 99.6391 186.624 98.6891 187.764 97.6191ZM188.644 100.139L189.364 100.559C187.884 102.289 185.374 103.459 182.684 104.089C182.584 103.869 182.394 103.539 182.204 103.329C184.814 102.789 187.304 101.709 188.644 100.139Z" fill="#D1001B" fill-opacity="0.5"/>
<path d="M1426.81 206.448V205.628H1428.79V199.898L1426.81 201.378V200.378L1428.46 199.148H1429.69V205.628H1431.31V206.448H1426.81Z" fill="#D1001B" fill-opacity="0.5"/>
<path d="M597.851 352.456C597.404 352.456 597.014 352.369 596.681 352.196C596.354 352.016 596.101 351.766 595.921 351.446C595.741 351.119 595.651 350.739 595.651 350.306V347.106C595.651 346.666 595.741 346.286 595.921 345.966C596.101 345.646 596.354 345.399 596.681 345.226C597.014 345.046 597.404 344.956 597.851 344.956C598.304 344.956 598.694 345.046 599.021 345.226C599.348 345.399 599.601 345.646 599.781 345.966C599.961 346.286 600.051 346.666 600.051 347.106V350.306C600.051 350.739 599.961 351.119 599.781 351.446C599.601 351.766 599.344 352.016 599.011 352.196C598.684 352.369 598.298 352.456 597.851 352.456ZM597.851 351.686C598.251 351.686 598.571 351.559 598.811 351.306C599.058 351.046 599.181 350.712 599.181 350.306V347.106C599.181 346.699 599.058 346.369 598.811 346.116C598.571 345.856 598.251 345.726 597.851 345.726C597.451 345.726 597.128 345.856 596.881 346.116C596.641 346.369 596.521 346.699 596.521 347.106V350.306C596.521 350.712 596.641 351.046 596.881 351.306C597.128 351.559 597.451 351.686 597.851 351.686ZM597.851 349.296C597.671 349.296 597.524 349.239 597.411 349.126C597.304 349.012 597.251 348.862 597.251 348.676C597.251 348.496 597.304 348.352 597.411 348.246C597.524 348.132 597.671 348.076 597.851 348.076C598.031 348.076 598.174 348.132 598.281 348.246C598.394 348.352 598.451 348.496 598.451 348.676C598.451 348.862 598.394 349.012 598.281 349.126C598.174 349.239 598.031 349.296 597.851 349.296Z" fill="#D1001B" fill-opacity="0.5"/>
<path d="M167.965 174.469H172.925V175.089H167.965V174.469ZM167.775 176.179H173.135V176.819H167.775V176.179ZM171.105 174.669H171.785V179.059H171.105V174.669ZM169.055 174.699H169.705V176.519C169.705 177.129 169.465 178.439 168.335 179.199C168.235 179.059 168.005 178.849 167.835 178.749C168.845 178.129 169.055 177.069 169.055 176.519V174.699ZM166.725 171.859H169.535V172.399H166.725V171.859ZM171.335 171.859H174.165V172.399H171.335V171.859ZM173.875 170.469H174.615V178.269C174.615 178.719 174.515 178.959 174.215 179.089C173.915 179.219 173.415 179.229 172.655 179.229C172.625 179.029 172.525 178.679 172.415 178.469C172.965 178.489 173.505 178.489 173.665 178.479C173.825 178.479 173.875 178.419 173.875 178.269V170.469ZM166.785 170.469H169.995V173.839H166.785V173.269H169.285V171.049H166.785V170.469ZM174.235 170.469V171.049H171.595V173.279H174.235V173.849H170.875V170.469H174.235ZM166.335 170.469H167.075V179.249H166.335V170.469Z" fill="#D1001B" fill-opacity="0.5"/>
<path d="M1222.56 638.302H1228.06V639.012H1222.56V638.302ZM1221.56 635.172H1224.54V635.842H1221.56V635.172ZM1221.3 640.512H1229.28V641.202H1221.3V640.512ZM1224.28 635.172H1224.42L1224.56 635.142L1225.06 635.382C1224.33 637.362 1222.69 638.782 1221.06 639.512C1220.96 639.342 1220.74 639.082 1220.59 638.942C1222.09 638.332 1223.67 636.952 1224.28 635.322V635.172ZM1223.63 638.642H1224.37V640.352C1224.37 641.742 1224.05 643.132 1221.58 643.992C1221.48 643.822 1221.25 643.542 1221.09 643.402C1223.36 642.642 1223.63 641.472 1223.63 640.342V638.642ZM1226.1 634.782C1226.8 636.592 1228.24 638.172 1230.02 638.862C1229.85 639.022 1229.62 639.312 1229.5 639.502C1227.68 638.692 1226.23 637.002 1225.44 634.972L1226.1 634.782ZM1221.42 636.592L1221.9 636.182C1222.37 636.512 1222.96 636.992 1223.25 637.302L1222.75 637.752C1222.47 637.442 1221.89 636.942 1221.42 636.592ZM1227.96 634.852L1228.54 635.252C1228.03 635.762 1227.36 636.322 1226.85 636.672L1226.39 636.312C1226.89 635.942 1227.58 635.312 1227.96 634.852ZM1229.15 636.002L1229.71 636.402C1229.16 636.922 1228.44 637.492 1227.88 637.872L1227.42 637.512C1227.97 637.132 1228.72 636.472 1229.15 636.002ZM1226.12 638.662H1226.89V642.812C1226.89 643.132 1226.95 643.192 1227.3 643.192C1227.45 643.192 1228.24 643.192 1228.44 643.192C1228.76 643.192 1228.81 642.992 1228.85 641.922C1229.02 642.052 1229.32 642.182 1229.53 642.222C1229.46 643.512 1229.25 643.872 1228.51 643.872C1228.32 643.872 1227.37 643.872 1227.19 643.872C1226.34 643.872 1226.12 643.642 1226.12 642.812V638.662Z" fill="#D1001B" fill-opacity="0.5"/>
<path d="M1332.3 34.8591H1341.21V35.5291H1332.3V34.8591ZM1333.18 32.8991H1338.97V33.5691H1333.18V32.8991ZM1334.8 38.2091H1339.51V38.8091H1334.8V38.2091ZM1334.8 39.8691H1339.51V40.5191H1334.8V39.8691ZM1335.75 31.6391H1336.48V35.2191H1335.75V31.6391ZM1340.13 31.9891L1340.77 32.3291C1338.76 34.9591 1335.75 36.9291 1332.55 38.1591C1332.46 37.9891 1332.22 37.6791 1332.07 37.5291C1335.3 36.4091 1338.28 34.4691 1340.13 31.9891ZM1334.39 36.5891H1339.99V40.8091H1339.21V37.2191H1335.14V40.8491H1334.39V36.5891Z" fill="#D1001B" fill-opacity="0.5"/>
<path d="M917.17 330.249L917.87 330.709C916.5 331.699 914.41 332.609 912.74 333.139C912.63 332.929 912.4 332.629 912.2 332.429C913.84 331.979 915.98 331.119 917.17 330.249ZM917.59 332.789L918.32 333.209C917.01 334.419 914.93 335.429 913.08 336.029C912.96 335.819 912.75 335.519 912.54 335.319C914.34 334.809 916.45 333.859 917.59 332.789ZM918.47 335.309L919.19 335.729C917.71 337.459 915.2 338.629 912.51 339.259C912.41 339.039 912.22 338.709 912.03 338.499C914.64 337.959 917.13 336.879 918.47 335.309Z" fill="#D1001B" fill-opacity="0.5"/>
<path d="M372.961 418.394V417.574H374.941V411.844L372.961 413.324V412.324L374.611 411.094H375.841V417.574H377.461V418.394H372.961Z" fill="#D1001B" fill-opacity="0.5"/>
<path d="M1214.97 98.3384C1214.52 98.3384 1214.13 98.2517 1213.8 98.0784C1213.47 97.8984 1213.22 97.6484 1213.04 97.3284C1212.86 97.0017 1212.77 96.6217 1212.77 96.1884V92.9884C1212.77 92.5484 1212.86 92.1684 1213.04 91.8484C1213.22 91.5284 1213.47 91.2817 1213.8 91.1084C1214.13 90.9284 1214.52 90.8384 1214.97 90.8384C1215.42 90.8384 1215.81 90.9284 1216.14 91.1084C1216.47 91.2817 1216.72 91.5284 1216.9 91.8484C1217.08 92.1684 1217.17 92.5484 1217.17 92.9884V96.1884C1217.17 96.6217 1217.08 97.0017 1216.9 97.3284C1216.72 97.6484 1216.46 97.8984 1216.13 98.0784C1215.8 98.2517 1215.42 98.3384 1214.97 98.3384ZM1214.97 97.5684C1215.37 97.5684 1215.69 97.4417 1215.93 97.1884C1216.18 96.9284 1216.3 96.5951 1216.3 96.1884V92.9884C1216.3 92.5817 1216.18 92.2517 1215.93 91.9984C1215.69 91.7384 1215.37 91.6084 1214.97 91.6084C1214.57 91.6084 1214.25 91.7384 1214 91.9984C1213.76 92.2517 1213.64 92.5817 1213.64 92.9884V96.1884C1213.64 96.5951 1213.76 96.9284 1214 97.1884C1214.25 97.4417 1214.57 97.5684 1214.97 97.5684ZM1214.97 95.1784C1214.79 95.1784 1214.64 95.1217 1214.53 95.0084C1214.42 94.8951 1214.37 94.7451 1214.37 94.5584C1214.37 94.3784 1214.42 94.2351 1214.53 94.1284C1214.64 94.0151 1214.79 93.9584 1214.97 93.9584C1215.15 93.9584 1215.29 94.0151 1215.4 94.1284C1215.51 94.2351 1215.57 94.3784 1215.57 94.5584C1215.57 94.7451 1215.51 94.8951 1215.4 95.0084C1215.29 95.1217 1215.15 95.1784 1214.97 95.1784Z" fill="#D1001B" fill-opacity="0.5"/>
<path d="M376.36 96.0605H381.32V96.6805H376.36V96.0605ZM376.17 97.7705H381.53V98.4105H376.17V97.7705ZM379.5 96.2605H380.18V100.65H379.5V96.2605ZM377.45 96.2905H378.1V98.1105C378.1 98.7205 377.86 100.03 376.73 100.79C376.63 100.65 376.4 100.44 376.23 100.34C377.24 99.7205 377.45 98.6605 377.45 98.1105V96.2905ZM375.12 93.4505H377.93V93.9905H375.12V93.4505ZM379.73 93.4505H382.56V93.9905H379.73V93.4505ZM382.27 92.0605H383.01V99.8605C383.01 100.31 382.91 100.55 382.61 100.68C382.31 100.81 381.81 100.82 381.05 100.82C381.02 100.62 380.92 100.27 380.81 100.06C381.36 100.08 381.9 100.08 382.06 100.07C382.22 100.07 382.27 100.01 382.27 99.8605V92.0605ZM375.18 92.0605H378.39V95.4305H375.18V94.8605H377.68V92.6405H375.18V92.0605ZM382.63 92.0605V92.6405H379.99V94.8705H382.63V95.4405H379.27V92.0605H382.63ZM374.73 92.0605H375.47V100.84H374.73V92.0605Z" fill="#D1001B" fill-opacity="0.5"/>
<path d="M694.347 188.761H699.847V189.471H694.347V188.761ZM693.347 185.631H696.327V186.301H693.347V185.631ZM693.087 190.971H701.067V191.661H693.087V190.971ZM696.067 185.631H696.207L696.347 185.601L696.847 185.841C696.117 187.821 694.477 189.241 692.847 189.971C692.747 189.801 692.527 189.541 692.377 189.401C693.877 188.791 695.457 187.411 696.067 185.781V185.631ZM695.417 189.101H696.157V190.811C696.157 192.201 695.837 193.591 693.367 194.451C693.267 194.281 693.037 194.001 692.877 193.861C695.147 193.101 695.417 191.931 695.417 190.801V189.101ZM697.887 185.241C698.587 187.051 700.027 188.631 701.807 189.321C701.637 189.481 701.407 189.771 701.287 189.961C699.467 189.151 698.017 187.461 697.227 185.431L697.887 185.241ZM693.207 187.051L693.687 186.641C694.157 186.971 694.747 187.451 695.037 187.761L694.537 188.211C694.257 187.901 693.677 187.401 693.207 187.051ZM699.747 185.311L700.327 185.711C699.817 186.221 699.147 186.781 698.637 187.131L698.177 186.771C698.677 186.401 699.367 185.771 699.747 185.311ZM700.937 186.461L701.497 186.861C700.947 187.381 700.227 187.951 699.667 188.331L699.207 187.971C699.757 187.591 700.507 186.931 700.937 186.461ZM697.907 189.121H698.677V193.271C698.677 193.591 698.737 193.651 699.087 193.651C699.237 193.651 700.027 193.651 700.227 193.651C700.547 193.651 700.597 193.451 700.637 192.381C700.807 192.511 701.107 192.641 701.317 192.681C701.247 193.971 701.037 194.331 700.297 194.331C700.107 194.331 699.157 194.331 698.977 194.331C698.127 194.331 697.907 194.101 697.907 193.271V189.121Z" fill="#D1001B" fill-opacity="0.5"/>
<path d="M68.349 36.2119H77.259V36.8819H68.349V36.2119ZM69.229 34.2519H75.019V34.9219H69.229V34.2519ZM70.849 39.5619H75.559V40.1619H70.849V39.5619ZM70.849 41.2219H75.559V41.8719H70.849V41.2219ZM71.799 32.9919H72.529V36.5719H71.799V32.9919ZM76.179 33.3419L76.819 33.6819C74.809 36.3119 71.799 38.2819 68.599 39.5119C68.509 39.3419 68.269 39.0319 68.119 38.8819C71.349 37.7619 74.329 35.8219 76.179 33.3419ZM70.439 37.9419H76.039V42.1619H75.259V38.5719H71.189V42.2019H70.439V37.9419Z" fill="#D1001B" fill-opacity="0.5"/>
</svg>
