<svg width="33" height="33" viewBox="0 0 33 33" fill="none" xmlns="http://www.w3.org/2000/svg">
<path d="M30.5652 11.4854H29.0352V22.1554H30.5652V11.4854Z" fill="#fff"/>
<path d="M29.0352 22.1554H27.5152V23.6754H29.0352V22.1554Z" fill="#fff"/>
<path d="M29.0352 9.96537H27.5152V11.4854H29.0352V9.96537Z" fill="#fff"/>
<path d="M27.5152 11.4854H24.4652V13.0054H27.5152V11.4854Z" fill="#fff"/>
<path d="M27.5152 23.6754H24.4652V25.2054H27.5152V23.6754Z" fill="#fff"/>
<path d="M25.9952 9.96537V8.43537H24.4652V6.91537H21.4252V8.43537H19.8952V9.96537H21.4252V11.4854H24.4652V9.96537H25.9952Z" fill="#fff"/>
<path d="M24.4652 13.0054H21.4252V14.5354H24.4652V13.0054Z" fill="#fff"/>
<path d="M24.4652 25.2054H21.4252V26.7254H24.4652V25.2054Z" fill="#fff"/>
<path d="M18.3752 29.7754V28.2454H21.4252V26.7254H18.3752V16.0554H15.3252V17.5854H16.8452V28.2454H15.3252V29.7754H18.3752Z" fill="#fff"/>
<path d="M21.4252 14.5354H18.3752V16.0554H21.4252V14.5354Z" fill="#fff"/>
<path d="M18.3752 13.0054H19.8952V11.4854H18.3752V9.96537H15.3252V11.4854H13.8052V13.0054H15.3252V14.5354H18.3752V13.0054Z" fill="#fff"/>
<path d="M15.3252 3.86537V5.39537H13.8052V6.91537H15.3252V8.43537H18.3752V6.91537H19.8952V5.39537H18.3752V3.86537H15.3252Z" fill="#fff"/>
<path d="M15.3252 26.7254H12.2752V28.2454H15.3252V26.7254Z" fill="#fff"/>
<path d="M15.3252 14.5354H12.2752V16.0554H15.3252V14.5354Z" fill="#fff"/>
<path d="M12.2752 25.2054H9.23523V26.7254H12.2752V25.2054Z" fill="#fff"/>
<path d="M12.2752 9.96537H13.8052V8.43537H12.2752V6.91537H9.23523V8.43537H7.70523V9.96537H9.23523V11.4854H12.2752V9.96537Z" fill="#fff"/>
<path d="M12.2752 13.0054H9.23523V14.5354H12.2752V13.0054Z" fill="#fff"/>
<path d="M9.23523 23.6754H6.18523V25.2054H9.23523V23.6754Z" fill="#fff"/>
<path d="M9.23523 11.4854H6.18523V13.0054H9.23523V11.4854Z" fill="#fff"/>
<path d="M6.18523 22.1554H4.65523V23.6754H6.18523V22.1554Z" fill="#fff"/>
<path d="M6.18523 9.96537H4.65523V11.4854H6.18523V9.96537Z" fill="#fff"/>
<path d="M4.65522 11.4854H3.13522V22.1554H4.65522V11.4854Z" fill="#fff"/>
</svg>
