<svg width="33" height="33" viewBox="0 0 33 33" fill="none" xmlns="http://www.w3.org/2000/svg">
<g clip-path="url(#clip0_1128_25192)">
<path d="M32.8502 5.39537H31.3302V6.91537H32.8502V5.39537Z" fill="#fff"/>
<path d="M31.3302 16.0554H28.2802V17.5854H29.8002V22.1554H26.7502V20.6354H25.2302V23.6754H29.8002V28.2554H31.3302V23.6754H32.8502V22.1554H31.3302V16.0554Z" fill="#fff"/>
<path d="M31.3302 9.96537H29.8002V11.4854H28.2802V13.0154H29.8002V14.5354H31.3302V13.0154H32.8502V11.4854H31.3302V9.96537Z" fill="#fff"/>
<path d="M28.2802 17.5854H26.7502V20.6354H28.2802V17.5854Z" fill="#fff"/>
<path d="M26.7502 6.91537H25.2302V8.44537H26.7502V6.91537Z" fill="#fff"/>
<path d="M25.2302 13.0154H23.7102V16.0554H25.2302V13.0154Z" fill="#fff"/>
<path d="M13.0402 26.7254V19.1054H11.5202V23.6754H9.99022V25.2054H8.47021V28.2554H9.99022V29.7754H23.7102V28.2554H25.2302V25.2054H23.7102V23.6754H22.1802V19.1054H20.6602V26.7254H13.0402Z" fill="#fff"/>
<path d="M23.7102 16.0554H22.1802V17.5854H23.7102V16.0554Z" fill="#fff"/>
<path d="M23.7102 11.4854H22.1802V13.0154H23.7102V11.4854Z" fill="#fff"/>
<path d="M22.1802 3.86537H20.6602V5.39537H22.1802V3.86537Z" fill="#fff"/>
<path d="M20.6602 17.5854H19.1402V19.1054H20.6602V17.5854Z" fill="#fff"/>
<path d="M20.6602 11.4854H19.1402V13.0154H20.6602V11.4854Z" fill="#fff"/>
<path d="M19.1402 20.6354H17.6102V22.1554H19.1402V20.6354Z" fill="#fff"/>
<path d="M19.1402 23.6754H14.5602V25.2054H19.1402V23.6754Z" fill="#fff"/>
<path d="M19.1402 16.0554H14.5602V17.5854H19.1402V16.0554Z" fill="#fff"/>
<path d="M16.0902 20.6354H14.5602V22.1554H16.0902V20.6354Z" fill="#fff"/>
<path d="M14.5602 8.44537V9.96537H13.0402V11.4854H14.5602V13.0154H16.0902V11.4854H17.6102V9.96537H16.0902V8.44537H14.5602Z" fill="#fff"/>
<path d="M14.5602 17.5854H13.0402V19.1054H14.5602V17.5854Z" fill="#fff"/>
<path d="M13.0402 13.0154H9.99023V14.5354H13.0402V13.0154Z" fill="#fff"/>
<path d="M11.5202 16.0554H9.99023V17.5854H11.5202V16.0554Z" fill="#fff"/>
<path d="M11.5202 3.86537H9.99023V5.39537H11.5202V3.86537Z" fill="#fff"/>
<path d="M9.99022 14.5354H8.47021V16.0554H9.99022V14.5354Z" fill="#fff"/>
<path d="M3.90022 16.0554V17.5854H5.42022V22.1554H2.37022V20.6354H0.85022V23.6754H5.42022V26.7254H6.95022V23.6754H8.47022V22.1554H6.95022V16.0554H3.90022Z" fill="#fff"/>
<path d="M8.47023 9.96537H6.95023V11.4854H8.47023V9.96537Z" fill="#fff"/>
<path d="M3.90021 17.5854H2.37021V20.6354H3.90021V17.5854Z" fill="#fff"/>
<path d="M2.37022 5.39537V6.91537H0.85022V8.44537H2.37022V9.96537H3.90022V8.44537H5.42022V6.91537H3.90022V5.39537H2.37022Z" fill="#fff"/>
</g>
<defs>
<clipPath id="clip0_1128_25192">
<rect width="32" height="32" fill="white" transform="translate(0.85022 0.820374)"/>
</clipPath>
</defs>
</svg>
