<svg width="33" height="33" viewBox="0 0 33 33" fill="none" xmlns="http://www.w3.org/2000/svg">
<g clip-path="url(#clip0_1128_24869)">
<path d="M31.3302 6.92037H29.8102V8.44037H28.2802V9.97037H29.8102V11.4904H31.3302V9.97037H32.8502V8.44037H31.3302V6.92037Z" fill="#fff"/>
<path d="M31.3302 19.1104H29.8102V17.5904H26.7602V11.4904H16.0902V17.5904H5.42022V19.1104H3.90022V20.6304H2.38022V22.1604H0.85022V23.6804H5.42022V32.8204H28.2802V23.6804H32.8502V20.6304H31.3302V19.1104ZM17.6102 13.0104H25.2302V17.5904H17.6102V13.0104ZM19.1402 31.3004H6.95022V23.6804H17.6102V22.1604H19.1402V31.3004ZM26.7602 31.3004H20.6602V19.1104H26.7602V31.3004Z" fill="#fff"/>
<path d="M22.1902 3.87037H20.6602V5.40037H22.1902V3.87037Z" fill="#fff"/>
<path d="M17.6102 0.820374V8.44037H25.2302V6.92037H23.7102V5.40037H22.1902V6.92037H19.1402V3.87037H20.6602V2.35037H19.1402V0.820374H17.6102Z" fill="#fff"/>
<path d="M14.5702 8.44037H13.0402V13.0104H14.5702V8.44037Z" fill="#fff"/>
<path d="M13.0402 13.0104H11.5202V14.5404H13.0402V13.0104Z" fill="#fff"/>
<path d="M13.0402 6.92037H11.5202V8.44037H13.0402V6.92037Z" fill="#fff"/>
<path d="M11.5202 14.5404H6.95022V16.0604H11.5202V14.5404Z" fill="#fff"/>
<path d="M11.5202 5.40037H6.95022V6.92037H11.5202V5.40037Z" fill="#fff"/>
<path d="M6.95022 13.0104H5.42022V14.5404H6.95022V13.0104Z" fill="#fff"/>
<path d="M6.95022 6.92037H5.42022V8.44037H6.95022V6.92037Z" fill="#fff"/>
<path d="M5.42022 8.44037H3.90022V13.0104H5.42022V8.44037Z" fill="#fff"/>
<path d="M3.90022 2.35037H2.38022V3.87037H3.90022V2.35037Z" fill="#fff"/>
</g>
<defs>
<clipPath id="clip0_1128_24869">
<rect width="32" height="32" fill="white" transform="translate(0.85022 0.820374)"/>
</clipPath>
</defs>
</svg>
