<svg width="33" height="33" viewBox="0 0 33 33" fill="none" xmlns="http://www.w3.org/2000/svg">
<g clip-path="url(#clip0_1128_24758)">
<path d="M32.8502 16.8254H31.3302V24.4454H32.8502V16.8254Z" fill="#fff"/>
<path d="M31.3302 24.4454H29.8002V27.4854H31.3302V24.4454Z" fill="#fff"/>
<path d="M31.3302 13.7754H29.8002V16.8254H31.3302V13.7754Z" fill="#fff"/>
<path d="M29.8002 27.4854H28.2802V30.5354H29.8002V27.4854Z" fill="#fff"/>
<path d="M29.8002 12.2454H28.2802V13.7754H29.8002V12.2454Z" fill="#fff"/>
<path d="M28.2802 30.5354H26.7502V32.0554H28.2802V30.5354Z" fill="#fff"/>
<path d="M28.2802 21.3954H26.7502V24.4454H28.2802V21.3954Z" fill="#fff"/>
<path d="M28.2802 16.8254H26.7502V19.8654H28.2802V16.8254Z" fill="#fff"/>
<path d="M28.2802 10.7254H26.7502V12.2454H28.2802V10.7254Z" fill="#fff"/>
<path d="M26.7502 24.4454H25.2302V25.9654H26.7502V24.4454Z" fill="#fff"/>
<path d="M26.7502 12.2454H25.2302V16.8254H26.7502V12.2454Z" fill="#fff"/>
<path d="M26.7502 6.15537H25.2302V7.67537H26.7502V6.15537Z" fill="#fff"/>
<path d="M25.2302 25.9654H23.7102V27.4854H25.2302V25.9654Z" fill="#fff"/>
<path d="M26.7502 19.8654H23.7102V21.3954H26.7502V19.8654Z" fill="#fff"/>
<path d="M25.2302 7.67537H23.7102V9.20537H25.2302V7.67537Z" fill="#fff"/>
<path d="M25.2302 4.63537H23.7102V6.15537H25.2302V4.63537Z" fill="#fff"/>
<path d="M23.7102 21.3954H22.1802V22.9154H23.7102V21.3954Z" fill="#fff"/>
<path d="M23.7102 9.20537H22.1802V10.7254H23.7102V9.20537Z" fill="#fff"/>
<path d="M23.7102 3.10537H22.1802V4.63537H23.7102V3.10537Z" fill="#fff"/>
<path d="M22.1802 30.5354H20.6602V32.0554H22.1802V30.5354Z" fill="#fff"/>
<path d="M22.1802 22.9154H20.6602V24.4454H22.1802V22.9154Z" fill="#fff"/>
<path d="M22.1802 10.7254H20.6602V12.2454H22.1802V10.7254Z" fill="#fff"/>
<path d="M22.1802 1.58537H20.6602V3.10537H22.1802V1.58537Z" fill="#fff"/>
<path d="M20.6602 24.4454H19.1402V30.5354H20.6602V24.4454Z" fill="#fff"/>
<path d="M19.1402 1.58537H17.6102V4.63537H19.1402V1.58537Z" fill="#fff"/>
<path d="M17.6102 4.63537H16.0902V9.20537H17.6102V4.63537Z" fill="#fff"/>
<path d="M16.0902 9.20537H14.5602V12.2454H16.0902V9.20537Z" fill="#fff"/>
<path d="M14.5602 24.4454H13.0402V30.5354H14.5602V24.4454Z" fill="#fff"/>
<path d="M13.0402 30.5354H11.5202V32.0554H13.0402V30.5354Z" fill="#fff"/>
<path d="M13.0402 22.9154H11.5202V24.4454H13.0402V22.9154Z" fill="#fff"/>
<path d="M13.0402 10.7254H11.5202V12.2454H13.0402V10.7254Z" fill="#fff"/>
<path d="M13.0402 1.58537H11.5202V3.10537H13.0402V1.58537Z" fill="#fff"/>
<path d="M11.5202 21.3954H9.99023V22.9154H11.5202V21.3954Z" fill="#fff"/>
<path d="M11.5202 9.20537H9.99023V10.7254H11.5202V9.20537Z" fill="#fff"/>
<path d="M11.5202 3.10537H9.99023V4.63537H11.5202V3.10537Z" fill="#fff"/>
<path d="M9.99022 25.9654H8.47021V27.4854H9.99022V25.9654Z" fill="#fff"/>
<path d="M9.99023 19.8654H6.95023V21.3954H9.99023V19.8654Z" fill="#fff"/>
<path d="M9.99022 7.67537H8.47021V9.20537H9.99022V7.67537Z" fill="#fff"/>
<path d="M9.99022 4.63537H8.47021V6.15537H9.99022V4.63537Z" fill="#fff"/>
<path d="M8.47023 24.4454H6.95023V25.9654H8.47023V24.4454Z" fill="#fff"/>
<path d="M8.47023 12.2454H6.95023V16.8254H8.47023V12.2454Z" fill="#fff"/>
<path d="M8.47023 6.15537H6.95023V7.67537H8.47023V6.15537Z" fill="#fff"/>
<path d="M6.95023 30.5354H5.42023V32.0554H6.95023V30.5354Z" fill="#fff"/>
<path d="M6.95023 21.3954H5.42023V24.4454H6.95023V21.3954Z" fill="#fff"/>
<path d="M6.95023 16.8254H5.42023V19.8654H6.95023V16.8254Z" fill="#fff"/>
<path d="M6.95023 10.7254H5.42023V12.2454H6.95023V10.7254Z" fill="#fff"/>
<path d="M5.42021 27.4854H3.90021V30.5354H5.42021V27.4854Z" fill="#fff"/>
<path d="M5.42021 12.2454H3.90021V13.7754H5.42021V12.2454Z" fill="#fff"/>
<path d="M3.90021 24.4454H2.37021V27.4854H3.90021V24.4454Z" fill="#fff"/>
<path d="M3.90021 13.7754H2.37021V16.8254H3.90021V13.7754Z" fill="#fff"/>
<path d="M2.37022 16.8254H0.85022V24.4454H2.37022V16.8254Z" fill="#fff"/>
</g>
<defs>
<clipPath id="clip0_1128_24758">
<rect width="32" height="32" fill="white" transform="translate(0.85022 0.820374)"/>
</clipPath>
</defs>
</svg>
