<svg width="32" height="32" viewBox="0 0 32 32" fill="none" xmlns="http://www.w3.org/2000/svg">
<g clip-path="url(#clip0_20_2)">
<rect x="11" y="31" width="1" height="1" fill="white"/>
<rect width="1" height="1" transform="matrix(1 0 0 -1 11 1)" fill="white"/>
<rect x="12" y="31" width="1" height="1" fill="white"/>
<rect width="1" height="1" transform="matrix(1 0 0 -1 12 1)" fill="white"/>
<rect x="13" y="31" width="1" height="1" fill="white"/>
<rect width="1" height="1" transform="matrix(1 0 0 -1 13 1)" fill="white"/>
<rect x="14" y="31" width="1" height="1" fill="white"/>
<rect width="1" height="1" transform="matrix(1 0 0 -1 14 1)" fill="white"/>
<rect x="15" y="31" width="1" height="1" fill="white"/>
<rect width="1" height="1" transform="matrix(1 0 0 -1 15 1)" fill="white"/>
<rect x="16" y="31" width="1" height="1" fill="white"/>
<rect width="1" height="1" transform="matrix(1 0 0 -1 16 1)" fill="white"/>
<rect x="17" y="31" width="1" height="1" fill="white"/>
<rect width="1" height="1" transform="matrix(1 0 0 -1 17 1)" fill="white"/>
<rect x="18" y="31" width="1" height="1" fill="white"/>
<rect width="1" height="1" transform="matrix(1 0 0 -1 18 1)" fill="white"/>
<rect x="19" y="31" width="1" height="1" fill="white"/>
<rect width="1" height="1" transform="matrix(1 0 0 -1 19 1)" fill="white"/>
<rect x="20" y="31" width="1" height="1" fill="white"/>
<rect width="1" height="1" transform="matrix(1 0 0 -1 20 1)" fill="white"/>
<rect x="20" y="30" width="1" height="1" fill="white"/>
<rect width="1" height="1" transform="matrix(1 0 0 -1 20 2)" fill="white"/>
<rect x="21" y="30" width="1" height="1" fill="white"/>
<rect width="1" height="1" transform="matrix(1 0 0 -1 21 2)" fill="white"/>
<rect x="22" y="30" width="1" height="1" fill="white"/>
<rect width="1" height="1" transform="matrix(1 0 0 -1 22 2)" fill="white"/>
<rect x="22" y="29" width="1" height="1" fill="white"/>
<rect width="1" height="1" transform="matrix(1 0 0 -1 22 3)" fill="white"/>
<rect x="23" y="29" width="1" height="1" fill="white"/>
<rect width="1" height="1" transform="matrix(1 0 0 -1 23 3)" fill="white"/>
<rect x="23" y="28" width="1" height="1" fill="white"/>
<rect width="1" height="1" transform="matrix(1 0 0 -1 23 4)" fill="white"/>
<rect x="24" y="28" width="1" height="1" fill="white"/>
<rect width="1" height="1" transform="matrix(1 0 0 -1 24 4)" fill="white"/>
<rect x="25" y="28" width="1" height="1" fill="white"/>
<rect width="1" height="1" transform="matrix(1 0 0 -1 25 4)" fill="white"/>
<rect x="25" y="27" width="1" height="1" fill="white"/>
<rect width="1" height="1" transform="matrix(1 0 0 -1 25 5)" fill="white"/>
<rect x="26" y="27" width="1" height="1" fill="white"/>
<rect width="1" height="1" transform="matrix(1 0 0 -1 26 5)" fill="white"/>
<rect x="26" y="26" width="1" height="1" fill="white"/>
<rect width="1" height="1" transform="matrix(1 0 0 -1 26 6)" fill="white"/>
<rect x="27" y="26" width="1" height="1" fill="white"/>
<rect width="1" height="1" transform="matrix(1 0 0 -1 27 6)" fill="white"/>
<rect x="27" y="25" width="1" height="1" fill="white"/>
<rect width="1" height="1" transform="matrix(1 0 0 -1 27 7)" fill="white"/>
<rect x="28" y="25" width="1" height="1" fill="white"/>
<rect width="1" height="1" transform="matrix(1 0 0 -1 28 7)" fill="white"/>
<rect x="28" y="24" width="1" height="1" fill="white"/>
<rect width="1" height="1" transform="matrix(1 0 0 -1 28 8)" fill="white"/>
<rect x="29" y="24" width="1" height="1" fill="white"/>
<rect width="1" height="1" transform="matrix(1 0 0 -1 29 8)" fill="white"/>
<rect x="29" y="23" width="1" height="1" fill="white"/>
<rect width="1" height="1" transform="matrix(1 0 0 -1 29 9)" fill="white"/>
<rect x="29" y="22" width="1" height="1" fill="white"/>
<rect width="1" height="1" transform="matrix(1 0 0 -1 29 10)" fill="white"/>
<rect x="30" y="22" width="1" height="1" fill="white"/>
<rect width="1" height="1" transform="matrix(1 0 0 -1 30 10)" fill="white"/>
<rect x="30" y="21" width="1" height="1" fill="white"/>
<rect width="1" height="1" transform="matrix(1 0 0 -1 30 11)" fill="white"/>
<rect x="30" y="20" width="1" height="1" fill="white"/>
<rect width="1" height="1" transform="matrix(1 0 0 -1 30 12)" fill="white"/>
<rect x="31" y="20" width="1" height="1" fill="white"/>
<rect width="1" height="1" transform="matrix(1 0 0 -1 31 12)" fill="white"/>
<rect x="31" y="19" width="1" height="1" fill="white"/>
<rect width="1" height="1" transform="matrix(1 0 0 -1 31 13)" fill="white"/>
<rect x="31" y="18" width="1" height="1" fill="white"/>
<rect width="1" height="1" transform="matrix(1 0 0 -1 31 14)" fill="white"/>
<rect x="31" y="17" width="1" height="1" fill="white"/>
<rect width="1" height="1" transform="matrix(1 0 0 -1 31 15)" fill="white"/>
<rect y="17" width="1" height="1" fill="white"/>
<rect width="1" height="1" transform="matrix(1 0 0 -1 0 15)" fill="white"/>
<rect width="1" height="1" transform="matrix(1 0 0 -1 0 16)" fill="white"/>
<rect width="1" height="1" transform="matrix(1 0 0 -1 0 17)" fill="white"/>
<rect width="1" height="1" transform="matrix(1 0 0 -1 31 17)" fill="white"/>
<rect width="1" height="1" transform="matrix(1 0 0 -1 31 16)" fill="white"/>
<rect y="18" width="1" height="1" fill="white"/>
<rect width="1" height="1" transform="matrix(1 0 0 -1 0 14)" fill="white"/>
<rect y="20" width="1" height="1" fill="white"/>
<rect width="1" height="1" transform="matrix(1 0 0 -1 0 12)" fill="white"/>
<rect y="19" width="1" height="1" fill="white"/>
<rect width="1" height="1" transform="matrix(1 0 0 -1 0 13)" fill="white"/>
<rect x="1" y="20" width="1" height="1" fill="white"/>
<rect width="1" height="1" transform="matrix(1 0 0 -1 1 12)" fill="white"/>
<rect x="1" y="21" width="1" height="1" fill="white"/>
<rect width="1" height="1" transform="matrix(1 0 0 -1 1 11)" fill="white"/>
<rect x="1" y="22" width="1" height="1" fill="white"/>
<rect width="1" height="1" transform="matrix(1 0 0 -1 1 10)" fill="white"/>
<rect x="2" y="22" width="1" height="1" fill="white"/>
<rect width="1" height="1" transform="matrix(1 0 0 -1 2 10)" fill="white"/>
<rect x="2" y="23" width="1" height="1" fill="white"/>
<rect width="1" height="1" transform="matrix(1 0 0 -1 2 9)" fill="white"/>
<rect x="2" y="24" width="1" height="1" fill="white"/>
<rect width="1" height="1" transform="matrix(1 0 0 -1 2 8)" fill="white"/>
<rect x="3" y="24" width="1" height="1" fill="white"/>
<rect width="1" height="1" transform="matrix(1 0 0 -1 3 8)" fill="white"/>
<rect x="3" y="25" width="1" height="1" fill="white"/>
<rect width="1" height="1" transform="matrix(1 0 0 -1 3 7)" fill="white"/>
<rect x="4" y="26" width="1" height="1" fill="white"/>
<rect width="1" height="1" transform="matrix(1 0 0 -1 4 6)" fill="white"/>
<rect x="4" y="25" width="1" height="1" fill="white"/>
<rect width="1" height="1" transform="matrix(1 0 0 -1 4 7)" fill="white"/>
<rect x="5" y="26" width="1" height="1" fill="white"/>
<rect width="1" height="1" transform="matrix(1 0 0 -1 5 6)" fill="white"/>
<rect x="5" y="27" width="1" height="1" fill="white"/>
<rect width="1" height="1" transform="matrix(1 0 0 -1 5 5)" fill="white"/>
<rect x="6" y="27" width="1" height="1" fill="white"/>
<rect width="1" height="1" transform="matrix(1 0 0 -1 6 5)" fill="white"/>
<rect x="6" y="28" width="1" height="1" fill="white"/>
<rect width="1" height="1" transform="matrix(1 0 0 -1 6 4)" fill="white"/>
<rect x="7" y="28" width="1" height="1" fill="white"/>
<rect width="1" height="1" transform="matrix(1 0 0 -1 7 4)" fill="white"/>
<rect x="8" y="28" width="1" height="1" fill="white"/>
<rect width="1" height="1" transform="matrix(1 0 0 -1 8 4)" fill="white"/>
<rect x="8" y="29" width="1" height="1" fill="white"/>
<rect width="1" height="1" transform="matrix(1 0 0 -1 8 3)" fill="white"/>
<rect x="9" y="29" width="1" height="1" fill="white"/>
<rect width="1" height="1" transform="matrix(1 0 0 -1 9 3)" fill="white"/>
<rect x="9" y="30" width="1" height="1" fill="white"/>
<rect width="1" height="1" transform="matrix(1 0 0 -1 9 2)" fill="white"/>
<rect x="10" y="30" width="1" height="1" fill="white"/>
<rect width="1" height="1" transform="matrix(1 0 0 -1 10 2)" fill="white"/>
<rect x="11" y="30" width="1" height="1" fill="white"/>
<rect width="1" height="1" transform="matrix(1 0 0 -1 11 2)" fill="white"/>
<rect width="8" height="1" transform="matrix(1 0 0 -1 12 1)" fill="white"/>
<rect width="12" height="1" transform="matrix(1 0 0 -1 10 2)" fill="white"/>
<rect width="14" height="1" transform="matrix(1 0 0 -1 9 3)" fill="white"/>
<rect width="18" height="1" transform="matrix(1 0 0 -1 7 4)" fill="white"/>
<rect width="20" height="1" transform="matrix(1 0 0 -1 6 5)" fill="white"/>
<rect width="3" height="1" transform="matrix(1 0 0 -1 5 6)" fill="white"/>
<rect width="14" height="1" transform="matrix(1 0 0 -1 9 6)" fill="white"/>
<rect width="3" height="1" transform="matrix(1 0 0 -1 24 6)" fill="white"/>
<rect width="3" height="1" transform="matrix(1 0 0 -1 25 7)" fill="white"/>
<rect width="12" height="1" transform="matrix(1 0 0 -1 10 7)" fill="white"/>
<rect width="3" height="1" transform="matrix(1 0 0 -1 4 7)" fill="white"/>
<rect width="4" height="1" transform="matrix(1 0 0 -1 3 8)" fill="white"/>
<rect width="10" height="1" transform="matrix(1 0 0 -1 11 8)" fill="white"/>
<rect width="4" height="1" transform="matrix(1 0 0 -1 25 8)" fill="white"/>
<rect width="4" height="1" transform="matrix(1 0 0 -1 25 9)" fill="white"/>
<rect width="5" height="1" transform="matrix(1 0 0 -1 25 10)" fill="white"/>
<rect width="5" height="1" transform="matrix(1 0 0 -1 25 11)" fill="white"/>
<rect width="5" height="1" transform="matrix(1 0 0 -1 26 12)" fill="white"/>
<rect width="5" height="1" transform="matrix(1 0 0 -1 26 13)" fill="white"/>
<rect width="5" height="1" transform="matrix(1 0 0 -1 26 14)" fill="white"/>
<rect width="5" height="1" transform="matrix(1 0 0 -1 26 15)" fill="white"/>
<rect width="5" height="1" transform="matrix(1 0 0 -1 26 16)" fill="white"/>
<rect width="5" height="1" transform="matrix(1 0 0 -1 26 17)" fill="white"/>
<rect width="5" height="1" transform="matrix(1 0 0 -1 26 18)" fill="white"/>
<rect width="5" height="1" transform="matrix(1 0 0 -1 26 19)" fill="white"/>
<rect width="5" height="1" transform="matrix(1 0 0 -1 25 20)" fill="white"/>
<rect width="6" height="1" transform="matrix(1 0 0 -1 24 21)" fill="white"/>
<rect width="6" height="1" transform="matrix(1 0 0 -1 23 22)" fill="white"/>
<rect width="10" height="1" transform="matrix(1 0 0 -1 19 23)" fill="white"/>
<rect width="9" height="1" transform="matrix(1 0 0 -1 19 24)" fill="white"/>
<rect width="7" height="1" transform="matrix(1 0 0 -1 20 25)" fill="white"/>
<rect width="6" height="1" transform="matrix(1 0 0 -1 20 26)" fill="white"/>
<rect width="5" height="1" transform="matrix(1 0 0 -1 20 27)" fill="white"/>
<rect width="3" height="1" transform="matrix(1 0 0 -1 20 28)" fill="white"/>
<rect width="2" height="1" transform="matrix(1 0 0 -1 20 29)" fill="white"/>
<rect width="4" height="1" transform="matrix(1 0 0 -1 3 9)" fill="white"/>
<rect width="5" height="1" transform="matrix(1 0 0 -1 2 10)" fill="white"/>
<rect width="5" height="1" transform="matrix(1 0 0 -1 2 11)" fill="white"/>
<rect width="5" height="1" transform="matrix(1 0 0 -1 1 12)" fill="white"/>
<rect width="5" height="1" transform="matrix(1 0 0 -1 1 13)" fill="white"/>
<rect width="5" height="1" transform="matrix(1 0 0 -1 1 14)" fill="white"/>
<rect width="5" height="1" transform="matrix(1 0 0 -1 1 15)" fill="white"/>
<rect width="5" height="1" transform="matrix(1 0 0 -1 1 16)" fill="white"/>
<rect width="5" height="1" transform="matrix(1 0 0 -1 1 17)" fill="white"/>
<rect width="5" height="1" transform="matrix(1 0 0 -1 1 18)" fill="white"/>
<rect width="5" height="1" transform="matrix(1 0 0 -1 1 19)" fill="white"/>
<rect width="5" height="1" transform="matrix(1 0 0 -1 2 20)" fill="white"/>
<rect width="6" height="1" transform="matrix(1 0 0 -1 2 21)" fill="white"/>
<rect width="6" height="1" transform="matrix(1 0 0 -1 3 22)" fill="white"/>
<rect width="6" height="1" transform="matrix(1 0 0 -1 7 23)" fill="white"/>
<rect width="5" height="1" transform="matrix(1 0 0 -1 8 24)" fill="white"/>
<rect width="4" height="1" transform="matrix(1 0 0 -1 8 25)" fill="white"/>
<rect width="1" height="1" transform="matrix(1 0 0 -1 3 23)" fill="white"/>
<rect width="2" height="1" transform="matrix(1 0 0 -1 4 24)" fill="white"/>
<rect width="1" height="1" transform="matrix(1 0 0 -1 5 25)" fill="white"/>
<rect width="1" height="1" transform="matrix(1 0 0 -1 6 26)" fill="white"/>
<rect width="1" height="1" transform="matrix(1 0 0 -1 7 27)" fill="white"/>
<rect width="3" height="1" transform="matrix(1 0 0 -1 9 28)" fill="white"/>
<rect width="2" height="1" transform="matrix(1 0 0 -1 10 29)" fill="white"/>
<rect width="8" height="1" transform="matrix(1 0 0 -1 12 29)" fill="white"/>
<rect width="12" height="1" transform="matrix(1 0 0 -1 10 30)" fill="white"/>
<rect width="8" height="1" transform="matrix(1 0 0 -1 12 31)" fill="white"/>
<rect width="1" height="1" transform="matrix(1 0 0 -1 9 29)" fill="white"/>
<rect width="1" height="1" transform="matrix(1 0 0 -1 7 28)" fill="white"/>
<rect width="1" height="1" transform="matrix(1 0 0 -1 8 28)" fill="white"/>
<rect width="1" height="1" transform="matrix(1 0 0 -1 6 27)" fill="white"/>
<rect width="1" height="1" transform="matrix(1 0 0 -1 5 26)" fill="white"/>
<rect width="1" height="1" transform="matrix(1 0 0 -1 4 25)" fill="white"/>
<rect width="1" height="1" transform="matrix(1 0 0 -1 3 24)" fill="white"/>
<rect width="1" height="1" transform="matrix(1 0 0 -1 2 22)" fill="white"/>
<rect width="1" height="1" transform="matrix(1 0 0 -1 1 20)" fill="white"/>
<rect width="1" height="1" transform="matrix(1 0 0 -1 30 20)" fill="white"/>
<rect width="1" height="1" transform="matrix(1 0 0 -1 29 22)" fill="white"/>
<rect width="1" height="1" transform="matrix(1 0 0 -1 28 24)" fill="white"/>
<rect width="1" height="1" transform="matrix(1 0 0 -1 27 25)" fill="white"/>
<rect width="1" height="1" transform="matrix(1 0 0 -1 26 26)" fill="white"/>
<rect width="1" height="1" transform="matrix(1 0 0 -1 25 27)" fill="white"/>
<rect width="1" height="1" transform="matrix(1 0 0 -1 24 28)" fill="white"/>
<rect width="1" height="1" transform="matrix(1 0 0 -1 23 28)" fill="white"/>
<rect width="1" height="1" transform="matrix(1 0 0 -1 22 29)" fill="white"/>
</g>
<defs>
<clipPath id="clip0_20_2">
<rect width="32" height="32" fill="white"/>
</clipPath>
</defs>
</svg>
