<svg width="33" height="33" viewBox="0 0 33 33" fill="none" xmlns="http://www.w3.org/2000/svg">
<path d="M31.9985 9.01537H30.4685V10.5354H31.9985V9.01537Z" fill="#fff"/>
<path d="M30.4685 10.5354H28.9485V12.0654H30.4685V10.5354Z" fill="#fff"/>
<path d="M30.4685 7.49538H28.9485V9.01538H30.4685V7.49538Z" fill="#fff"/>
<path d="M28.9485 9.01537H27.4285V10.5354H28.9485V9.01537Z" fill="#fff"/>
<path d="M27.4285 28.8254V27.2954H28.9485V25.7754H27.4285V24.2554H25.8985V25.7754H24.3785V27.2954H25.8985V28.8254H27.4285Z" fill="#fff"/>
<path d="M27.4285 13.5854H25.8985V16.6354H27.4285V13.5854Z" fill="#fff"/>
<path d="M25.8985 16.6354H24.3785V18.1554H25.8985V16.6354Z" fill="#fff"/>
<path d="M25.8985 4.44537H24.3785V5.96537H25.8985V4.44537Z" fill="#fff"/>
<path d="M24.3785 18.1554H22.8485V19.6854H24.3785V18.1554Z" fill="#fff"/>
<path d="M24.3785 5.96536H22.8485V7.49536H24.3785V5.96536Z" fill="#fff"/>
<path d="M22.8485 19.6854H21.3285V21.2054H22.8485V19.6854Z" fill="#fff"/>
<path d="M22.8485 7.49538H21.3285V9.01538H22.8485V7.49538Z" fill="#fff"/>
<path d="M21.3285 21.2054H19.8085V22.7254H21.3285V21.2054Z" fill="#fff"/>
<path d="M21.3285 9.01537H19.8085V10.5354H21.3285V9.01537Z" fill="#fff"/>
<path d="M19.8085 30.3454H18.2785V31.8754H19.8085V30.3454Z" fill="#fff"/>
<path d="M19.8085 22.7254H18.2785V24.2554H19.8085V22.7254Z" fill="#fff"/>
<path d="M18.2785 10.5354V12.0654H16.7585V13.5854H25.8985V12.0654H19.8085V10.5354H18.2785Z" fill="#fff"/>
<path d="M18.2785 24.2554H16.7585V25.7754H18.2785V24.2554Z" fill="#fff"/>
<path d="M25.8985 2.91537V4.44537H27.4285V1.39537H15.2385V2.91537H25.8985Z" fill="#fff"/>
<path d="M16.7585 25.7754H15.2385V27.2954H16.7585V25.7754Z" fill="#fff"/>
<path d="M15.2385 27.2954H13.7085V28.8254H15.2385V27.2954Z" fill="#fff"/>
<path d="M15.2385 2.91537H13.7085V4.44537H15.2385V2.91537Z" fill="#fff"/>
<path d="M13.7085 28.8254H12.1885V30.3454H13.7085V28.8254Z" fill="#fff"/>
<path d="M13.7085 16.6354H4.56854V18.1554H12.1885V21.2054H13.7085V16.6354Z" fill="#fff"/>
<path d="M13.7085 4.44537H12.1885V5.96537H13.7085V4.44537Z" fill="#fff"/>
<path d="M12.1885 30.3454H10.6585V31.8754H12.1885V30.3454Z" fill="#fff"/>
<path d="M12.1885 21.2054H10.6585V25.7754H12.1885V21.2054Z" fill="#fff"/>
<path d="M12.1885 5.96536H10.6585V7.49536H12.1885V5.96536Z" fill="#fff"/>
<path d="M10.6585 25.7754H9.13855V30.3454H10.6585V25.7754Z" fill="#fff"/>
<path d="M10.6585 7.49538H9.13855V9.01538H10.6585V7.49538Z" fill="#fff"/>
<path d="M9.13855 9.01537H7.61855V10.5354H9.13855V9.01537Z" fill="#fff"/>
<path d="M7.61855 10.5354H6.08854V12.0654H7.61855V10.5354Z" fill="#fff"/>
<path d="M6.08854 22.7254H4.56854V24.2554H6.08854V22.7254Z" fill="#fff"/>
<path d="M6.08854 12.0654H4.56854V13.5854H6.08854V12.0654Z" fill="#fff"/>
<path d="M4.56855 1.39537V2.91537H3.04855V4.44537H4.56855V5.96537H6.08855V4.44537H7.61855V2.91537H6.08855V1.39537H4.56855Z" fill="#fff"/>
<path d="M4.56855 24.2554H3.04855V25.7754H4.56855V24.2554Z" fill="#fff"/>
<path d="M4.56855 21.2054H3.04855V22.7254H4.56855V21.2054Z" fill="#fff"/>
<path d="M4.56855 13.5854H3.04855V16.6354H4.56855V13.5854Z" fill="#fff"/>
<path d="M3.04855 22.7254H1.51855V24.2554H3.04855V22.7254Z" fill="#fff"/>
</svg>
