<svg width="33" height="33" viewBox="0 0 33 33" fill="none" xmlns="http://www.w3.org/2000/svg">
<g clip-path="url(#clip0_1128_24487)">
<path d="M32.1769 26.5453H30.6569V31.1153H32.1769V26.5453Z" fill="#fff"/>
<path d="M32.1769 14.3553H30.6569V18.9253H32.1769V14.3553Z" fill="#fff"/>
<path d="M32.1769 2.16541H30.6569V6.7354H32.1769V2.16541Z" fill="#fff"/>
<path d="M30.6569 18.9254H29.1269V20.4454H30.6569V18.9254Z" fill="#fff"/>
<path d="M30.6569 12.8254H29.1269V14.3554H30.6569V12.8254Z" fill="#fff"/>
<path d="M30.6569 0.635376H26.0869V2.16538H30.6569V0.635376Z" fill="#fff"/>
<path d="M30.6569 31.1154H26.0869V32.6354H30.6569V31.1154Z" fill="#fff"/>
<path d="M29.1269 20.4454H27.6069V21.9754H29.1269V20.4454Z" fill="#fff"/>
<path d="M29.1269 11.3054H27.6069V12.8254H29.1269V11.3054Z" fill="#fff"/>
<path d="M27.6069 21.9754H24.5569V23.4954H27.6069V21.9754Z" fill="#fff"/>
<path d="M27.6069 9.7854H24.5569V11.3054H27.6069V9.7854Z" fill="#fff"/>
<path d="M24.5569 23.4954H21.5169V25.0154H24.5569V23.4954Z" fill="#fff"/>
<path d="M24.5569 8.25537H21.5169V9.78537H24.5569V8.25537Z" fill="#fff"/>
<path d="M21.5169 12.8254H19.9869V11.3054H18.4669V9.7854H13.8969V11.3054H12.3669V12.8254H10.8469V14.3554H9.32688V18.9254H10.8469V20.4454H12.3669V21.9754H13.8969V23.4954H18.4669V21.9754H19.9869V20.4454H21.5169V18.9254H23.0369V14.3554H21.5169V12.8254ZM18.4669 17.4054H16.9369V18.9254H15.4169V17.4054H13.8969V15.8754H15.4169V14.3554H16.9369V15.8754H18.4669V17.4054Z" fill="#fff"/>
<path d="M21.5169 25.0154H10.8469V26.5454H21.5169V25.0154Z" fill="#fff"/>
<path d="M21.5169 6.73535H10.8469V8.25535H21.5169V6.73535Z" fill="#fff"/>
<path d="M10.8469 23.4954H7.79688V25.0154H10.8469V23.4954Z" fill="#fff"/>
<path d="M10.8469 8.25537H7.79688V9.78537H10.8469V8.25537Z" fill="#fff"/>
<path d="M7.79688 21.9754H4.74688V23.4954H7.79688V21.9754Z" fill="#fff"/>
<path d="M7.79688 9.7854H4.74688V11.3054H7.79688V9.7854Z" fill="#fff"/>
<path d="M6.27688 31.1154H1.70688V32.6354H6.27688V31.1154Z" fill="#fff"/>
<path d="M4.74688 20.4454H3.22688V21.9754H4.74688V20.4454Z" fill="#fff"/>
<path d="M4.74688 11.3054H3.22688V12.8254H4.74688V11.3054Z" fill="#fff"/>
<path d="M6.27688 0.635376H1.70688V2.16538H6.27688V0.635376Z" fill="#fff"/>
<path d="M3.22688 18.9254H1.70688V20.4454H3.22688V18.9254Z" fill="#fff"/>
<path d="M3.22688 12.8254H1.70688V14.3554H3.22688V12.8254Z" fill="#fff"/>
<path d="M1.70688 26.5453H0.17688V31.1153H1.70688V26.5453Z" fill="#fff"/>
<path d="M1.70688 14.3553H0.17688V18.9253H1.70688V14.3553Z" fill="#fff"/>
<path d="M1.70688 2.16541H0.17688V6.7354H1.70688V2.16541Z" fill="#fff"/>
</g>
<defs>
<clipPath id="clip0_1128_24487">
<rect width="32" height="32" fill="white" transform="translate(0.17688 0.635376)"/>
</clipPath>
</defs>
</svg>
