<svg width="33" height="33" viewBox="0 0 33 33" fill="none" xmlns="http://www.w3.org/2000/svg">
<g clip-path="url(#clip0_1128_23058)">
<path d="M32.8502 12.0654H31.3302V13.5854H32.8502V12.0654Z" fill="#fff"/>
<path d="M31.3302 13.5854H29.8002V15.1154H31.3302V13.5854Z" fill="#fff"/>
<path d="M31.3302 10.5454H29.8002V12.0654H31.3302V10.5454Z" fill="#fff"/>
<path d="M29.8002 15.1154H28.2802V16.6354H29.8002V15.1154Z" fill="#fff"/>
<path d="M29.8002 9.01537H28.2802V10.5454H29.8002V9.01537Z" fill="#fff"/>
<path d="M28.2802 16.6354H26.7602V18.1554H28.2802V16.6354Z" fill="#fff"/>
<path d="M28.2802 10.5454H26.7602V12.0654H28.2802V10.5454Z" fill="#fff"/>
<path d="M28.2802 7.49538H26.7602V9.01538H28.2802V7.49538Z" fill="#fff"/>
<path d="M26.7602 18.1554H25.2302V19.6854H26.7602V18.1554Z" fill="#fff"/>
<path d="M26.7602 12.0654H25.2302V13.5854H26.7602V12.0654Z" fill="#fff"/>
<path d="M26.7602 5.96536H25.2302V7.49536H26.7602V5.96536Z" fill="#fff"/>
<path d="M25.2302 16.6354H23.7102V18.1554H25.2302V16.6354Z" fill="#fff"/>
<path d="M25.2302 13.5854H23.7102V15.1154H25.2302V13.5854Z" fill="#fff"/>
<path d="M25.2302 4.44537H23.7102V5.96537H25.2302V4.44537Z" fill="#fff"/>
<path d="M23.7102 15.1154H22.1902V16.6354H23.7102V15.1154Z" fill="#fff"/>
<path d="M23.7102 2.92537H20.6602V4.44537H23.7102V2.92537Z" fill="#fff"/>
<path d="M20.6602 13.5854V12.0654H19.1402V10.5454H17.6102V12.0654H16.0902V13.5854H17.6102V15.1154H16.0902V16.6354H14.5702V18.1554H13.0402V16.6354H11.5202V18.1554H10.0002V19.6854H8.47022V21.2054H6.95022V22.7354H5.42022V24.2554H3.90022V25.7754H2.38022V27.3054H0.85022V30.3554H2.38022V31.8754H5.42022V30.3554H6.95022V28.8254H8.47022V27.3054H10.0002V25.7754H11.5202V24.2554H13.0402V22.7354H14.5702V21.2054H16.0902V19.6854H17.6102V18.1554H19.1402V16.6354H20.6602V15.1154H22.1902V13.5854H20.6602Z" fill="#fff"/>
<path d="M20.6602 4.44537H17.6102V5.96537H20.6602V4.44537Z" fill="#fff"/>
<path d="M17.6102 9.01537H16.0902V10.5454H17.6102V9.01537Z" fill="#fff"/>
<path d="M17.6102 2.92537H16.0902V4.44537H17.6102V2.92537Z" fill="#fff"/>
<path d="M16.0902 13.5854H14.5702V15.1154H16.0902V13.5854Z" fill="#fff"/>
<path d="M16.0902 7.49538H14.5702V9.01538H16.0902V7.49538Z" fill="#fff"/>
<path d="M16.0902 1.39537H14.5702V2.92537H16.0902V1.39537Z" fill="#fff"/>
<path d="M14.5702 15.1154H13.0402V16.6354H14.5702V15.1154Z" fill="#fff"/>
<path d="M14.5702 5.96536H13.0402V7.49536H14.5702V5.96536Z" fill="#fff"/>
<path d="M14.5702 2.92537H13.0402V4.44537H14.5702V2.92537Z" fill="#fff"/>
<path d="M13.0402 4.44537H11.5202V5.96537H13.0402V4.44537Z" fill="#fff"/>
</g>
<defs>
<clipPath id="clip0_1128_23058">
<rect width="32" height="32" fill="white" transform="translate(0.85022 0.635376)"/>
</clipPath>
</defs>
</svg>
