<svg fill="#ffffff" height="30px" width="30px" version="1.1" id="Icons" xmlns="http://www.w3.org/2000/svg" xmlns:xlink="http://www.w3.org/1999/xlink" viewBox="0 0 32 32" xml:space="preserve" stroke="#ffffff" stroke-width="0.00032"><g id="SVGRepo_bgCarrier" stroke-width="0"></g><g id="SVGRepo_tracerCarrier" stroke-linecap="round" stroke-linejoin="round"></g><g id="SVGRepo_iconCarrier"> <g> <path d="M22,19c-0.6,0-1-0.4-1-1V1c0-0.6,0.4-1,1-1h8c0.6,0,1,0.4,1,1v4c0,0.6-0.4,1-1,1h-7v12C23,18.6,22.6,19,22,19z"></path> </g> <path d="M14.9,16.9c0-4-3-7.3-6.9-7.8c-4,0.5-7,3.9-7,7.9v8c0,0.6,0.4,1,1,1h12.9V16.9z"></path> <path d="M12,28v3c0,0.6,0.4,1,1,1h6c0.6,0,1-0.4,1-1v-3H12z"></path> <path d="M25,9.3V18c0,0.6-0.4,1-1,1s-1-0.4-1-1V9H13c2.4,1.8,3.9,4.7,3.9,7.9V26H30c0.6,0,1-0.4,1-1v-8C31,13.3,28.4,10.2,25,9.3z"></path> </g></svg>