<svg width="32" height="32" viewBox="0 0 32 32" fill="none" xmlns="http://www.w3.org/2000/svg">
<g clip-path="url(#clip0_20_638)">
<rect x="11" y="31" width="1" height="1" fill="white"/>
<rect width="1" height="1" transform="matrix(1 0 0 -1 11 1)" fill="white"/>
<rect x="12" y="31" width="1" height="1" fill="white"/>
<rect width="1" height="1" transform="matrix(1 0 0 -1 12 1)" fill="white"/>
<rect x="13" y="31" width="1" height="1" fill="white"/>
<rect width="1" height="1" transform="matrix(1 0 0 -1 13 1)" fill="white"/>
<rect x="14" y="31" width="1" height="1" fill="white"/>
<rect width="1" height="1" transform="matrix(1 0 0 -1 14 1)" fill="white"/>
<rect x="15" y="31" width="1" height="1" fill="white"/>
<rect width="1" height="1" transform="matrix(1 0 0 -1 15 1)" fill="white"/>
<rect x="16" y="31" width="1" height="1" fill="white"/>
<rect width="1" height="1" transform="matrix(1 0 0 -1 16 1)" fill="white"/>
<rect x="17" y="31" width="1" height="1" fill="white"/>
<rect width="1" height="1" transform="matrix(1 0 0 -1 17 1)" fill="white"/>
<rect x="18" y="31" width="1" height="1" fill="white"/>
<rect width="1" height="1" transform="matrix(1 0 0 -1 18 1)" fill="white"/>
<rect x="19" y="31" width="1" height="1" fill="white"/>
<rect width="1" height="1" transform="matrix(1 0 0 -1 19 1)" fill="white"/>
<rect x="20" y="31" width="1" height="1" fill="white"/>
<rect width="1" height="1" transform="matrix(1 0 0 -1 20 1)" fill="white"/>
<rect x="20" y="30" width="1" height="1" fill="white"/>
<rect width="1" height="1" transform="matrix(1 0 0 -1 20 2)" fill="white"/>
<rect x="21" y="30" width="1" height="1" fill="white"/>
<rect width="1" height="1" transform="matrix(1 0 0 -1 21 2)" fill="white"/>
<rect x="22" y="30" width="1" height="1" fill="white"/>
<rect width="1" height="1" transform="matrix(1 0 0 -1 22 2)" fill="white"/>
<rect x="22" y="29" width="1" height="1" fill="white"/>
<rect width="1" height="1" transform="matrix(1 0 0 -1 22 3)" fill="white"/>
<rect x="23" y="29" width="1" height="1" fill="white"/>
<rect width="1" height="1" transform="matrix(1 0 0 -1 23 3)" fill="white"/>
<rect x="23" y="28" width="1" height="1" fill="white"/>
<rect width="1" height="1" transform="matrix(1 0 0 -1 23 4)" fill="white"/>
<rect x="24" y="28" width="1" height="1" fill="white"/>
<rect width="1" height="1" transform="matrix(1 0 0 -1 24 4)" fill="white"/>
<rect x="25" y="28" width="1" height="1" fill="white"/>
<rect width="1" height="1" transform="matrix(1 0 0 -1 25 4)" fill="white"/>
<rect x="25" y="27" width="1" height="1" fill="white"/>
<rect width="1" height="1" transform="matrix(1 0 0 -1 25 5)" fill="white"/>
<rect x="26" y="27" width="1" height="1" fill="white"/>
<rect width="1" height="1" transform="matrix(1 0 0 -1 26 5)" fill="white"/>
<rect x="26" y="26" width="1" height="1" fill="white"/>
<rect width="1" height="1" transform="matrix(1 0 0 -1 26 6)" fill="white"/>
<rect x="27" y="26" width="1" height="1" fill="white"/>
<rect width="1" height="1" transform="matrix(1 0 0 -1 27 6)" fill="white"/>
<rect x="27" y="25" width="1" height="1" fill="white"/>
<rect width="1" height="1" transform="matrix(1 0 0 -1 27 7)" fill="white"/>
<rect x="28" y="25" width="1" height="1" fill="white"/>
<rect width="1" height="1" transform="matrix(1 0 0 -1 28 7)" fill="white"/>
<rect x="28" y="24" width="1" height="1" fill="white"/>
<rect width="1" height="1" transform="matrix(1 0 0 -1 28 8)" fill="white"/>
<rect x="29" y="24" width="1" height="1" fill="white"/>
<rect width="1" height="1" transform="matrix(1 0 0 -1 29 8)" fill="white"/>
<rect x="29" y="23" width="1" height="1" fill="white"/>
<rect width="1" height="1" transform="matrix(1 0 0 -1 29 9)" fill="white"/>
<rect x="29" y="22" width="1" height="1" fill="white"/>
<rect width="1" height="1" transform="matrix(1 0 0 -1 29 10)" fill="white"/>
<rect x="30" y="22" width="1" height="1" fill="white"/>
<rect width="1" height="1" transform="matrix(1 0 0 -1 30 10)" fill="white"/>
<rect x="30" y="21" width="1" height="1" fill="white"/>
<rect width="1" height="1" transform="matrix(1 0 0 -1 30 11)" fill="white"/>
<rect x="30" y="20" width="1" height="1" fill="white"/>
<rect width="1" height="1" transform="matrix(1 0 0 -1 30 12)" fill="white"/>
<rect x="31" y="20" width="1" height="1" fill="white"/>
<rect width="1" height="1" transform="matrix(1 0 0 -1 31 12)" fill="white"/>
<rect x="31" y="19" width="1" height="1" fill="white"/>
<rect width="1" height="1" transform="matrix(1 0 0 -1 31 13)" fill="white"/>
<rect x="31" y="18" width="1" height="1" fill="white"/>
<rect width="1" height="1" transform="matrix(1 0 0 -1 31 14)" fill="white"/>
<rect x="31" y="17" width="1" height="1" fill="white"/>
<rect width="1" height="1" transform="matrix(1 0 0 -1 31 15)" fill="white"/>
<rect y="17" width="1" height="1" fill="white"/>
<rect width="1" height="1" transform="matrix(1 0 0 -1 0 15)" fill="white"/>
<rect width="1" height="1" transform="matrix(1 0 0 -1 0 16)" fill="white"/>
<rect width="1" height="1" transform="matrix(1 0 0 -1 0 17)" fill="white"/>
<rect width="1" height="1" transform="matrix(1 0 0 -1 31 17)" fill="white"/>
<rect width="1" height="1" transform="matrix(1 0 0 -1 31 16)" fill="white"/>
<rect y="18" width="1" height="1" fill="white"/>
<rect width="1" height="1" transform="matrix(1 0 0 -1 0 14)" fill="white"/>
<rect y="20" width="1" height="1" fill="white"/>
<rect width="1" height="1" transform="matrix(1 0 0 -1 0 12)" fill="white"/>
<rect y="19" width="1" height="1" fill="white"/>
<rect width="1" height="1" transform="matrix(1 0 0 -1 0 13)" fill="white"/>
<rect x="1" y="20" width="1" height="1" fill="white"/>
<rect width="1" height="1" transform="matrix(1 0 0 -1 1 12)" fill="white"/>
<rect x="1" y="21" width="1" height="1" fill="white"/>
<rect width="1" height="1" transform="matrix(1 0 0 -1 1 11)" fill="white"/>
<rect x="1" y="22" width="1" height="1" fill="white"/>
<rect width="1" height="1" transform="matrix(1 0 0 -1 1 10)" fill="white"/>
<rect x="2" y="22" width="1" height="1" fill="white"/>
<rect width="1" height="1" transform="matrix(1 0 0 -1 2 10)" fill="white"/>
<rect x="2" y="23" width="1" height="1" fill="white"/>
<rect width="1" height="1" transform="matrix(1 0 0 -1 2 9)" fill="white"/>
<rect x="2" y="24" width="1" height="1" fill="white"/>
<rect width="1" height="1" transform="matrix(1 0 0 -1 2 8)" fill="white"/>
<rect x="3" y="24" width="1" height="1" fill="white"/>
<rect width="1" height="1" transform="matrix(1 0 0 -1 3 8)" fill="white"/>
<rect x="3" y="25" width="1" height="1" fill="white"/>
<rect width="1" height="1" transform="matrix(1 0 0 -1 3 7)" fill="white"/>
<rect x="4" y="26" width="1" height="1" fill="white"/>
<rect width="1" height="1" transform="matrix(1 0 0 -1 4 6)" fill="white"/>
<rect x="4" y="25" width="1" height="1" fill="white"/>
<rect width="1" height="1" transform="matrix(1 0 0 -1 4 7)" fill="white"/>
<rect x="5" y="26" width="1" height="1" fill="white"/>
<rect width="1" height="1" transform="matrix(1 0 0 -1 5 6)" fill="white"/>
<rect x="5" y="27" width="1" height="1" fill="white"/>
<rect width="1" height="1" transform="matrix(1 0 0 -1 5 5)" fill="white"/>
<rect x="6" y="27" width="1" height="1" fill="white"/>
<rect width="1" height="1" transform="matrix(1 0 0 -1 6 5)" fill="white"/>
<rect x="6" y="28" width="1" height="1" fill="white"/>
<rect width="1" height="1" transform="matrix(1 0 0 -1 6 4)" fill="white"/>
<rect x="7" y="28" width="1" height="1" fill="white"/>
<rect width="1" height="1" transform="matrix(1 0 0 -1 7 4)" fill="white"/>
<rect x="8" y="28" width="1" height="1" fill="white"/>
<rect width="1" height="1" transform="matrix(1 0 0 -1 8 4)" fill="white"/>
<rect x="8" y="29" width="1" height="1" fill="white"/>
<rect width="1" height="1" transform="matrix(1 0 0 -1 8 3)" fill="white"/>
<rect x="9" y="29" width="1" height="1" fill="white"/>
<rect width="1" height="1" transform="matrix(1 0 0 -1 9 3)" fill="white"/>
<rect x="9" y="30" width="1" height="1" fill="white"/>
<rect width="1" height="1" transform="matrix(1 0 0 -1 9 2)" fill="white"/>
<rect x="10" y="30" width="1" height="1" fill="white"/>
<rect width="1" height="1" transform="matrix(1 0 0 -1 10 2)" fill="white"/>
<rect x="11" y="30" width="1" height="1" fill="white"/>
<rect width="1" height="1" transform="matrix(1 0 0 -1 11 2)" fill="white"/>
<rect width="8" height="1" transform="matrix(1 0 0 -1 12 2)" fill="white"/>
<rect width="12" height="1" transform="matrix(1 0 0 -1 10 3)" fill="white"/>
<rect width="14" height="1" transform="matrix(1 0 0 -1 9 4)" fill="white"/>
<rect width="18" height="1" transform="matrix(1 0 0 -1 7 5)" fill="white"/>
<rect width="20" height="1" transform="matrix(1 0 0 -1 6 6)" fill="white"/>
<rect width="22" height="1" transform="matrix(1 0 0 -1 5 7)" fill="white"/>
<rect width="24" height="1" transform="matrix(1 0 0 -1 4 8)" fill="white"/>
<rect width="3" height="1" transform="matrix(1 0 0 -1 3 9)" fill="white"/>
<rect width="2" height="1" transform="matrix(1 0 0 -1 3 10)" fill="white"/>
<rect width="3" height="1" transform="matrix(1 0 0 -1 2 11)" fill="white"/>
<rect width="4" height="1" transform="matrix(1 0 0 -1 2 12)" fill="white"/>
<rect width="6" height="1" transform="matrix(1 0 0 -1 1 13)" fill="white"/>
<rect width="4" height="7" transform="matrix(1 0 0 -1 1 20)" fill="white"/>
<rect width="3" height="2" transform="matrix(1 0 0 -1 2 22)" fill="white"/>
<rect width="2" height="2" transform="matrix(1 0 0 -1 3 24)" fill="white"/>
<rect width="2" height="1" transform="matrix(1 0 0 -1 4 25)" fill="white"/>
<rect width="22" height="1" transform="matrix(1 0 0 -1 5 26)" fill="white"/>
<rect width="20" height="1" transform="matrix(1 0 0 -1 6 27)" fill="white"/>
<rect width="18" height="1" transform="matrix(1 0 0 -1 7 28)" fill="white"/>
<rect width="14" height="1" transform="matrix(1 0 0 -1 9 29)" fill="white"/>
<rect width="12" height="1" transform="matrix(1 0 0 -1 10 30)" fill="white"/>
<rect width="8" height="1" transform="matrix(1 0 0 -1 12 31)" fill="white"/>
<rect width="2" height="1" transform="matrix(1 0 0 -1 26 25)" fill="white"/>
<rect width="2" height="2" transform="matrix(1 0 0 -1 27 24)" fill="white"/>
<rect width="3" height="2" transform="matrix(1 0 0 -1 27 22)" fill="white"/>
<rect width="4" height="8" transform="matrix(1 0 0 -1 27 20)" fill="white"/>
<rect width="3" height="2" transform="matrix(1 0 0 -1 27 12)" fill="white"/>
<rect width="2" height="2" transform="matrix(1 0 0 -1 27 10)" fill="white"/>
<rect width="1" height="1" transform="matrix(1 0 0 -1 26 9)" fill="white"/>
<rect width="1" height="1" transform="matrix(1 0 0 -1 26 12)" fill="white"/>
<rect width="1" height="1" transform="matrix(1 0 0 -1 26 13)" fill="white"/>
<rect width="1" height="1" transform="matrix(1 0 0 -1 25 13)" fill="white"/>
<rect width="1" height="1" transform="matrix(1 0 0 -1 25 14)" fill="white"/>
<rect width="1" height="1" transform="matrix(1 0 0 -1 24 14)" fill="white"/>
<rect width="1" height="1" transform="matrix(1 0 0 -1 24 15)" fill="white"/>
<rect width="1" height="1" transform="matrix(1 0 0 -1 23 15)" fill="white"/>
<rect width="1" height="1" transform="matrix(1 0 0 -1 23 16)" fill="white"/>
<rect width="1" height="1" transform="matrix(1 0 0 -1 22 16)" fill="white"/>
<rect width="1" height="1" transform="matrix(1 0 0 -1 22 17)" fill="white"/>
<rect width="1" height="1" transform="matrix(1 0 0 -1 23 17)" fill="white"/>
<rect width="1" height="1" transform="matrix(1 0 0 -1 24 17)" fill="white"/>
<rect width="1" height="1" transform="matrix(1 0 0 -1 23 18)" fill="white"/>
<rect width="1" height="1" transform="matrix(1 0 0 -1 24 18)" fill="white"/>
<rect width="1" height="1" transform="matrix(1 0 0 -1 25 18)" fill="white"/>
<rect width="1" height="1" transform="matrix(1 0 0 -1 24 19)" fill="white"/>
<rect width="1" height="1" transform="matrix(1 0 0 -1 25 19)" fill="white"/>
<rect width="1" height="1" transform="matrix(1 0 0 -1 26 19)" fill="white"/>
<rect width="1" height="1" transform="matrix(1 0 0 -1 25 20)" fill="white"/>
<rect width="1" height="1" transform="matrix(1 0 0 -1 26 20)" fill="white"/>
<rect width="1" height="1" transform="matrix(1 0 0 -1 26 21)" fill="white"/>
<rect width="1" height="1" transform="matrix(1 0 0 -1 21 17)" fill="white"/>
<rect width="1" height="1" transform="matrix(1 0 0 -1 21 18)" fill="white"/>
<rect width="1" height="1" transform="matrix(1 0 0 -1 20 18)" fill="white"/>
<rect width="1" height="1" transform="matrix(1 0 0 -1 20 19)" fill="white"/>
<rect width="1" height="1" transform="matrix(1 0 0 -1 19 19)" fill="white"/>
<rect width="1" height="1" transform="matrix(1 0 0 -1 18 19)" fill="white"/>
<rect width="1" height="1" transform="matrix(1 0 0 -1 18 20)" fill="white"/>
<rect width="1" height="1" transform="matrix(1 0 0 -1 17 20)" fill="white"/>
<rect width="1" height="1" transform="matrix(1 0 0 -1 17 21)" fill="white"/>
<rect width="2" height="2" transform="matrix(1 0 0 -1 15 22)" fill="white"/>
<rect width="1" height="1" transform="matrix(1 0 0 -1 14 21)" fill="white"/>
<rect width="1" height="1" transform="matrix(1 0 0 -1 14 20)" fill="white"/>
<rect width="1" height="1" transform="matrix(1 0 0 -1 13 20)" fill="white"/>
<rect width="1" height="1" transform="matrix(1 0 0 -1 13 19)" fill="white"/>
<rect width="1" height="1" transform="matrix(1 0 0 -1 12 19)" fill="white"/>
<rect width="1" height="1" transform="matrix(1 0 0 -1 11 19)" fill="white"/>
<rect width="1" height="1" transform="matrix(1 0 0 -1 11 18)" fill="white"/>
<rect width="1" height="1" transform="matrix(1 0 0 -1 10 18)" fill="white"/>
<rect width="1" height="1" transform="matrix(1 0 0 -1 10 17)" fill="white"/>
<rect width="1" height="1" transform="matrix(1 0 0 -1 9 16)" fill="white"/>
<rect width="1" height="1" transform="matrix(1 0 0 -1 8 16)" fill="white"/>
<rect width="1" height="1" transform="matrix(1 0 0 -1 7 15)" fill="white"/>
<rect width="1" height="1" transform="matrix(1 0 0 -1 7 14)" fill="white"/>
<rect width="1" height="1" transform="matrix(1 0 0 -1 6 14)" fill="white"/>
<rect width="1" height="1" transform="matrix(1 0 0 -1 8 15)" fill="white"/>
<rect width="1" height="1" transform="matrix(1 0 0 -1 9 17)" fill="white"/>
<rect width="1" height="1" transform="matrix(1 0 0 -1 8 17)" fill="white"/>
<rect width="1" height="1" transform="matrix(1 0 0 -1 7 17)" fill="white"/>
<rect width="1" height="1" transform="matrix(1 0 0 -1 8 18)" fill="white"/>
<rect width="1" height="1" transform="matrix(1 0 0 -1 7 18)" fill="white"/>
<rect width="1" height="1" transform="matrix(1 0 0 -1 6 18)" fill="white"/>
<rect width="1" height="1" transform="matrix(1 0 0 -1 5 19)" fill="white"/>
<rect width="1" height="1" transform="matrix(1 0 0 -1 6 19)" fill="white"/>
<rect width="1" height="1" transform="matrix(1 0 0 -1 7 19)" fill="white"/>
<rect width="1" height="1" transform="matrix(1 0 0 -1 6 20)" fill="white"/>
<rect width="1" height="1" transform="matrix(1 0 0 -1 5 21)" fill="white"/>
<rect width="1" height="1" transform="matrix(1 0 0 -1 5 20)" fill="white"/>
</g>
<defs>
<clipPath id="clip0_20_638">
<rect width="32" height="32" fill="white"/>
</clipPath>
</defs>
</svg>
