<svg width="30" height="30" viewBox="0 0 30 30" fill="none" xmlns="http://www.w3.org/2000/svg">
<g id="android studio">
<path id="Vector" d="M12.0234 4.14844H5.43745C4.12495 4.14844 3.04683 5.22656 3.04683 6.5625C2.99995 7.85156 4.0312 8.92969 5.32026 8.97656H12.0937L12.0234 4.14844Z" fill="#073042"/>
<path id="Vector_2" d="M26.9531 25.6172H5.4375C4.10156 25.6172 3.04688 24.5391 3.04688 23.2031V6.53906C3.04688 7.875 4.125 8.95312 5.4375 8.97656H23.4609C23.4609 8.97656 26.9766 8.67187 26.9766 11.3203V25.6172H26.9531Z" fill="#4285F4"/>
<path id="Vector_3" d="M16.9219 17.086C17.8828 16.3594 18.0703 15.0001 17.3437 14.0626C16.9453 13.5469 16.3359 13.2188 15.6797 13.1954H15.75C15.8672 13.1719 16.0078 13.1719 16.125 13.1954V11.8594C16.125 11.6954 16.0547 11.5547 15.9141 11.4844C15.7031 11.3672 15.4453 11.4376 15.3281 11.6485C15.2813 11.7188 15.2578 11.7891 15.2812 11.8829V13.2422C14.1094 13.4297 13.2891 14.5313 13.4766 15.7266V15.7501C13.5703 16.3126 13.875 16.8282 14.3438 17.1563L10.3828 25.6407H12.9609L14.7891 21.7501C15 21.2813 15.5625 21.0704 16.0547 21.3047C16.2422 21.3985 16.4063 21.5626 16.5 21.7501L18.3984 25.6407H21.0234L16.9219 17.086ZM15.5859 16.711C14.8359 16.711 14.25 16.1016 14.25 15.3516C14.25 14.6016 14.8594 14.0157 15.6094 14.0391C15.9609 14.0391 16.2656 14.1797 16.5234 14.4141C17.0625 14.9297 17.0625 15.7735 16.5469 16.3126C16.3125 16.5469 15.9609 16.711 15.5859 16.711Z" fill="#3870B2"/>
<path id="Vector_4" d="M10.5938 5.32031H19.8281V7.00781H10.5938V5.32031Z" fill="#C6C6C6"/>
<path id="Vector_5" d="M14.8828 14.0157C15.6093 14.0157 16.2187 14.6251 16.1953 15.3751C16.1953 16.1016 15.5859 16.711 14.8359 16.6876C14.1093 16.6876 13.5234 16.0782 13.5234 15.3516C13.5234 15.0001 13.664 14.6719 13.9218 14.4141C14.1797 14.1563 14.5312 14.0157 14.8828 14.0157ZM15.3984 13.2422V11.836C15.3984 11.6719 15.3281 11.5313 15.1875 11.461C14.9765 11.3438 14.7187 11.4141 14.6015 11.6251C14.5547 11.6954 14.5312 11.7657 14.5547 11.8594V13.2188C13.3828 13.4063 12.5625 14.5079 12.75 15.7032V15.7266C12.8437 16.2891 13.1484 16.8047 13.6172 17.1329L8.62497 27.8438C8.43747 28.2188 8.46091 28.6876 8.71872 29.0391C9.09372 29.5782 9.82028 29.7188 10.3593 29.3438C10.5468 29.2266 10.6875 29.0391 10.7812 28.8516L14.1093 21.7266C14.3203 21.2579 14.8828 21.0469 15.375 21.2813C15.5625 21.3751 15.7265 21.5391 15.8203 21.7266L19.2187 28.7813C19.5 29.3672 20.2031 29.6016 20.789 29.3204C21.375 29.0391 21.6093 28.336 21.3281 27.7501L16.1953 17.086C17.1328 16.336 17.2968 14.9532 16.5468 14.0157C16.2656 13.6407 15.8672 13.3829 15.3984 13.2422Z" fill="#073042"/>
<path id="Vector_6" d="M18.4688 6.82031C18.1172 6.82031 17.8359 6.5625 17.8359 6.21094C17.8359 6.04688 17.9062 5.85938 18.0234 5.74219C18.2813 5.50781 18.6562 5.50781 18.9141 5.74219C19.0312 5.85938 19.1016 6.02344 19.1016 6.1875C19.0781 6.53906 18.8203 6.79688 18.4688 6.82031ZM11.5313 6.79688C11.1797 6.79688 10.8984 6.51562 10.8984 6.1875C10.8984 6.02344 10.9687 5.85938 11.0859 5.74219C11.2969 5.48437 11.6953 5.4375 11.9531 5.64844H11.9766C12.2344 5.88281 12.2578 6.28125 12.0234 6.53906L11.9531 6.63281C11.8359 6.75 11.6719 6.82031 11.5078 6.82031M18.6562 3.02344L19.8984 0.867188C19.9688 0.75 19.9219 0.609375 19.8281 0.515625C19.7109 0.46875 19.5938 0.492187 19.5234 0.585938L18.2344 2.8125C16.1719 1.89844 13.8281 1.89844 11.7891 2.8125L10.5234 0.609375C10.4766 0.539062 10.3828 0.46875 10.2891 0.46875C10.1953 0.46875 10.1016 0.515625 10.0547 0.609375C10.0078 0.679687 10.0078 0.796875 10.0547 0.867188L11.3203 3.02344C9.11719 4.21875 7.6875 6.46875 7.47656 8.95313H22.5234C22.3359 6.44531 20.8828 4.21875 18.6797 3.02344" fill="#3DDC84"/>
<path id="Vector_7" d="M24.75 13.6172H23.7656C23.7188 13.6406 23.6719 13.6875 23.6719 13.7578V29.3437C23.6719 29.4141 23.7187 29.4609 23.7891 29.4609H24.8203C26.0156 29.4609 26.9766 28.4766 26.9766 27.3047V11.4375C26.9766 12.6328 26.0156 13.5938 24.8203 13.5938H24.75V13.6172Z" fill="#073042"/>
</g>
</svg>
