<svg width="27" height="30" viewBox="0 0 27 30" fill="none" xmlns="http://www.w3.org/2000/svg">
<g id="c-plusplus" clip-path="url(#clip0_105_137)">
<path id="Vector" d="M26.667 8.81146C26.6668 8.3076 26.559 7.86229 26.341 7.4801C26.127 7.10427 25.8063 6.78927 25.3763 6.54021C21.8263 4.49323 18.2726 2.4525 14.7238 0.403438C13.767 -0.148958 12.8394 -0.128854 11.8896 0.431563C10.4766 1.2649 3.40213 5.31802 1.2939 6.53906C0.425771 7.04167 0.00327148 7.81083 0.00306315 8.81042C0.00170898 12.9272 0.00306315 17.0438 0.00170898 21.1605C0.00170898 21.6532 0.105146 22.09 0.31348 22.4665C0.527646 22.8536 0.852751 23.1773 1.29275 23.432C3.40108 24.653 10.4765 28.7059 11.8892 29.5394C12.8393 30.1 13.767 30.1201 14.7241 29.5675C18.2731 27.5183 21.8268 25.4777 25.3774 23.4307C25.8174 23.1761 26.1425 22.8523 26.3567 22.4654C26.5647 22.089 26.6684 21.6523 26.6684 21.1593C26.6684 21.1593 26.6684 12.9282 26.667 8.81146Z" fill="#649AD2"/>
<path id="Vector_2" d="M13.3759 14.9453L0.313354 22.4664C0.527625 22.8535 0.85273 23.1772 1.29273 23.4319C3.40106 24.6529 10.4765 28.7058 11.8892 29.5393C12.8393 30.0999 13.767 30.12 14.7241 29.5674C18.273 27.5182 21.8268 25.4776 25.3774 23.4306C25.8174 23.176 26.1425 22.8522 26.3567 22.4653L13.3759 14.9453Z" fill="#004482"/>
<path id="Vector_3" d="M9.50684 17.1731C10.2669 18.5 11.6958 19.395 13.335 19.395C14.9842 19.395 16.4212 18.4888 17.1775 17.1475L13.3758 14.9453L9.50684 17.1731Z" fill="#1A4674"/>
<path id="Vector_4" d="M26.667 8.81158C26.6668 8.30772 26.559 7.86241 26.341 7.48022L13.3759 14.9455L26.3567 22.4655C26.5647 22.0891 26.6681 21.6524 26.6684 21.1594C26.6684 21.1594 26.6684 12.9283 26.667 8.81158Z" fill="#01589C"/>
<path id="Vector_5" d="M25.9532 15.4829H24.9388V16.4975H23.9243V15.4829H22.91V14.4687H23.9243V13.4544H24.9388V14.4687H25.9532V15.4829ZM13.335 6.12988C16.5782 6.12988 19.414 7.87363 20.9569 10.4746L21.0031 10.5536L17.1488 12.7731C16.385 11.4597 14.9636 10.5758 13.335 10.5758C10.8996 10.5758 8.92531 12.5501 8.92531 14.9854C8.9245 15.753 9.12502 16.5074 9.50687 17.1732C10.267 18.5001 11.6958 19.3951 13.335 19.3951C14.9661 19.3951 16.3897 18.5086 17.1524 17.1917L17.1775 17.1476L21.0261 19.3774C19.5001 22.0437 16.6274 23.841 13.335 23.841C10.0486 23.841 7.18041 22.0509 5.65229 19.3924C4.90624 18.0946 4.47937 16.5899 4.47937 14.9854C4.47937 10.0948 8.44406 6.12988 13.335 6.12988ZM21.2376 13.4543V14.4686H22.2519V15.4829H21.2376V16.4975H20.2232V15.4829H19.2089V14.4687H20.2232V13.4544H21.2376V13.4543Z" fill="#C6C6C6"/>
</g>
<defs>
<clipPath id="clip0_105_137">
<rect width="26.67" height="30" fill="white"/>
</clipPath>
</defs>
</svg>
