<svg width="30" height="30" viewBox="0 0 30 30" fill="none" xmlns="http://www.w3.org/2000/svg">
<g id="c-sharp" clip-path="url(#clip0_105_131)">
<path id="Vector" d="M15 30C23.2843 30 30 23.2843 30 15C30 6.71573 23.2843 0 15 0C6.71573 0 0 6.71573 0 15C0 23.2843 6.71573 30 15 30Z" fill="#05930C"/>
<path id="Vector_2" d="M4.55895 4.23047L25.7503 25.4609C23.0254 28.2609 19.2157 30 15 30C6.71578 30 0 23.2842 0 15C0 10.7742 1.74727 6.95672 4.55895 4.23047Z" fill="white" fill-opacity="0.1"/>
<path id="Vector_3" d="M14.2641 20.414C13.2437 20.9105 12.1169 21.1487 10.9829 21.1077C10.2334 21.1406 9.48561 21.0129 8.78955 20.7331C8.09348 20.4534 7.46524 20.0282 6.94693 19.4859C5.90498 18.3179 5.36154 16.7885 5.43287 15.2249C5.39656 14.3862 5.52887 13.5488 5.82194 12.7622C6.11502 11.9756 6.56291 11.2557 7.13911 10.6452C7.70191 10.0694 8.37863 9.61739 9.12603 9.31794C9.87343 9.0185 10.6751 8.87826 11.4797 8.90617C12.4302 8.8699 13.3779 9.02945 14.2641 9.37492V10.8515C13.4046 10.3738 12.4349 10.1297 11.4516 10.1437C10.8394 10.1234 10.2299 10.2342 9.66402 10.4686C9.09812 10.7031 8.58886 11.0557 8.17037 11.503C7.29263 12.5036 6.83872 13.8065 6.90474 15.1359C6.83981 16.3922 7.26306 17.625 8.08599 18.5765C8.48054 19.0007 8.96209 19.3347 9.49767 19.5555C10.0333 19.7764 10.6102 19.8789 11.1891 19.8562C12.2693 19.883 13.3356 19.6087 14.2688 19.064L14.2641 20.414ZM24.7313 12.403L24.5438 13.2749H22.3876L21.8719 15.7499H24.1876L23.9672 16.6218H21.6985L20.9719 19.903H19.936L20.6438 16.6218H18.5813L17.8876 19.903H16.8751L17.5688 16.6218H15.3938L15.5579 15.7499H17.7422L18.2438 13.2796H15.961L16.1344 12.4077H18.4172L19.111 9.09367H20.1563L19.4626 12.4077H21.5391L22.2469 9.09367H23.2594L22.5657 12.4077L24.7313 12.403ZM21.3704 13.2749H19.2891L18.7501 15.7499H20.8407L21.3704 13.2749Z" fill="#C6C6C6"/>
</g>
<defs>
<clipPath id="clip0_105_131">
<rect width="30" height="30" fill="white"/>
</clipPath>
</defs>
</svg>
