<svg width="30" height="30" viewBox="0 0 30 30" fill="none" xmlns="http://www.w3.org/2000/svg">
<g id="js" clip-path="url(#clip0_105_117)">
<g id="Group">
<path id="Vector" d="M22.9688 0H7.03125C3.148 0 0 3.148 0 7.03125V22.9688C0 26.852 3.148 30 7.03125 30H22.9688C26.852 30 30 26.852 30 22.9688V7.03125C30 3.148 26.852 0 22.9688 0Z" fill="#F0DB4F"/>
<path id="Vector_2" d="M7.88818 25.07L10.1839 23.6807C10.6269 24.4659 11.0297 25.1304 11.9962 25.1304C12.9226 25.1304 13.5066 24.7681 13.5066 23.3585V13.7728H16.3259V23.3984C16.3259 26.3183 14.6143 27.6475 12.117 27.6475C9.86173 27.6475 8.55263 26.4795 7.88806 25.0698M17.8572 24.7679L20.1527 23.4389C20.757 24.4258 21.5424 25.1507 22.9318 25.1507C24.1 25.1507 24.8449 24.5666 24.8449 23.7611C24.8449 22.7945 24.0796 22.4521 22.7908 21.8884L22.0861 21.5862C20.0521 20.7204 18.7028 19.6329 18.7028 17.3372C18.7028 15.2227 20.3139 13.6116 22.8312 13.6116C24.6235 13.6116 25.9123 14.2359 26.8386 15.8671L24.6435 17.2767C24.1601 16.4108 23.6368 16.0685 22.8312 16.0685C22.0055 16.0685 21.4819 16.5921 21.4819 17.2767C21.4819 18.1225 22.0055 18.4649 23.2137 18.9886L23.9185 19.2906C26.3149 20.3177 27.6642 21.3647 27.6642 23.7208C27.6642 26.2583 25.6706 27.6477 22.9922 27.6477C20.3744 27.6477 18.6828 26.3992 17.8572 24.7679Z" fill="#323330"/>
</g>
</g>
<defs>
<clipPath id="clip0_105_117">
<rect width="30" height="30" fill="white"/>
</clipPath>
</defs>
</svg>
