<svg width="30" height="30" viewBox="0 0 30 30" fill="none" xmlns="http://www.w3.org/2000/svg">
<g id="photoshop">
<path id="Vector" d="M22.9688 0H7.03125C3.148 0 0 3.148 0 7.03125V22.9688C0 26.852 3.148 30 7.03125 30H22.9688C26.852 30 30 26.852 30 22.9688V7.03125C30 3.148 26.852 0 22.9688 0Z" fill="#001E36"/>
<path id="Vector_2" d="M6.75 20.864V8.00152C6.75 7.91398 6.7875 7.86406 6.87504 7.86406C7.0875 7.86406 7.28754 7.86406 7.575 7.85152C7.875 7.83898 8.18754 7.83898 8.52504 7.82656C8.86254 7.81402 9.225 7.81402 9.61254 7.80148C9.99996 7.78906 10.375 7.78906 10.75 7.78906C11.775 7.78906 12.625 7.91398 13.325 8.17648C13.9525 8.38959 14.5247 8.73974 15 9.20152C15.4028 9.60564 15.714 10.0916 15.9125 10.6265C16.1 11.1515 16.2 11.6891 16.2 12.2516C16.2 13.3265 15.95 14.214 15.45 14.9141C14.95 15.614 14.25 16.139 13.4375 16.439C12.5875 16.7516 11.65 16.8641 10.625 16.8641C10.325 16.8641 10.125 16.8641 9.99996 16.8515C9.87504 16.839 9.69996 16.839 9.46254 16.839V20.8515C9.47496 20.939 9.4125 21.014 9.32496 21.0266H6.9C6.80004 21.0266 6.75 20.9765 6.75 20.864ZM9.47496 10.2765V14.4765C9.65004 14.489 9.81246 14.5016 9.96246 14.5016H10.625C11.1125 14.5016 11.6 14.4266 12.0625 14.2766C12.4625 14.1641 12.8125 13.9265 13.0875 13.614C13.35 13.3016 13.475 12.8765 13.475 12.3266C13.4868 11.9359 13.387 11.55 13.1875 11.214C12.975 10.889 12.675 10.6391 12.3125 10.5015C11.85 10.314 11.35 10.239 10.8375 10.2515C10.5125 10.2515 10.225 10.2515 9.98754 10.2641C9.73746 10.2515 9.5625 10.2641 9.47496 10.2765ZM24 13.7141C23.625 13.514 23.225 13.3766 22.8 13.289C22.3375 13.1891 21.875 13.1265 21.4 13.1265C21.15 13.1141 20.8875 13.1516 20.65 13.214C20.4875 13.2515 20.35 13.3391 20.2625 13.464C20.2 13.5641 20.1625 13.689 20.1625 13.8015C20.1625 13.914 20.2125 14.0265 20.2875 14.1266C20.4 14.264 20.55 14.3765 20.7125 14.4641C21.0023 14.6142 21.2984 14.7518 21.6 14.8766C22.275 15.1016 22.925 15.414 23.525 15.789C23.9375 16.0515 24.275 16.4015 24.5125 16.8266C24.7125 17.2265 24.8125 17.664 24.8 18.114C24.8125 18.7016 24.6375 19.289 24.3125 19.7765C23.9639 20.2755 23.4774 20.6621 22.9125 20.889C22.3 21.1515 21.55 21.2891 20.65 21.2891C20.075 21.2891 19.5125 21.239 18.95 21.1265C18.5092 21.0504 18.0804 20.9159 17.675 20.7266C17.5875 20.6765 17.525 20.589 17.5375 20.489V18.314C17.5375 18.2765 17.55 18.2265 17.5875 18.2015C17.625 18.1766 17.6625 18.189 17.7 18.2141C18.1875 18.5015 18.7 18.7016 19.25 18.8265C19.725 18.9515 20.225 19.014 20.725 19.014C21.2 19.014 21.5375 18.9515 21.7625 18.839C21.9625 18.7515 22.1 18.539 22.1 18.314C22.1 18.1391 22 17.9765 21.8 17.814C21.6 17.6516 21.1875 17.4641 20.575 17.2265C19.9466 17.0051 19.3499 16.7026 18.8 16.3265C18.4083 16.0473 18.0838 15.6844 17.85 15.264C17.65 14.864 17.55 14.4266 17.5625 13.989C17.5625 13.4516 17.7125 12.939 17.9875 12.4766C18.3 11.9765 18.7625 11.5766 19.3 11.3265C19.8875 11.0265 20.625 10.889 21.5125 10.889C22.025 10.889 22.55 10.9265 23.0625 11.0015C23.4375 11.0516 23.8 11.1515 24.1375 11.289C24.1875 11.3015 24.2375 11.3516 24.2625 11.4015C24.275 11.4515 24.2875 11.5016 24.2875 11.5515V13.589C24.2875 13.6391 24.2625 13.689 24.225 13.7141C24.1125 13.739 24.05 13.739 24 13.7141Z" fill="#31A8FF"/>
</g>
</svg>
