<svg width="30" height="30" viewBox="0 0 30 30" fill="none" xmlns="http://www.w3.org/2000/svg">
<g id="postgresql" clip-path="url(#clip0_105_176)">
<path id="Vector" d="M28.9827 17.9644C28.8083 17.4361 28.3514 17.0682 27.7605 16.9799C27.4818 16.9383 27.1627 16.956 26.7851 17.0338C26.1269 17.1696 25.6386 17.2213 25.2823 17.2313C26.6274 14.9603 27.7211 12.3705 28.3508 9.9327C29.369 5.99077 28.8249 4.19497 28.1891 3.3827C26.5065 1.2327 24.0516 0.0777005 21.09 0.0423596C19.5101 0.0230414 18.1232 0.334973 17.3997 0.559291C16.726 0.440428 16.0017 0.374064 15.2417 0.361791C13.8171 0.339064 12.5583 0.649632 11.4827 1.28793C10.8873 1.08656 9.9316 0.8027 8.82796 0.621564C6.23228 0.195428 4.14023 0.527473 2.61001 1.6085C0.757052 2.91736 -0.101926 5.19145 0.0569379 8.36759C0.107392 9.376 0.671483 12.4442 1.55967 15.354C2.07012 17.0265 2.61444 18.4153 3.17751 19.4824C3.97603 20.9954 4.83046 21.8865 5.78967 22.2065C6.32728 22.3855 7.3041 22.511 8.33148 21.6553C8.46171 21.813 8.63546 21.9697 8.86603 22.1153C9.15887 22.3 9.51694 22.4509 9.87455 22.5403C11.1633 22.8625 12.3705 22.7819 13.4003 22.3303C13.4067 22.5135 13.4116 22.6885 13.4157 22.8396C13.4225 23.0847 13.4293 23.3251 13.4383 23.5499C13.4993 25.0696 13.6027 26.2513 13.9091 27.0782C13.9259 27.1236 13.9485 27.1929 13.9724 27.2665C14.1252 27.7344 14.3808 28.5178 15.031 29.1313C15.7043 29.7669 16.5188 29.9618 17.2647 29.9618C17.6388 29.9618 17.9957 29.9127 18.3088 29.8457C19.4247 29.6065 20.6921 29.2421 21.6089 27.9367C22.4757 26.7026 22.8971 24.8438 22.9733 21.9151C22.9832 21.8322 22.9923 21.7532 23.001 21.6778L23.0192 21.523L23.2234 21.541L23.276 21.5445C24.4126 21.5963 25.8024 21.3553 26.6559 20.9588C27.3303 20.6459 29.4916 19.5049 28.9827 17.9644Z" fill="black"/>
<path id="Vector_2" d="M27.0393 18.2639C23.6598 18.9611 23.4274 17.8169 23.4274 17.8169C26.9956 12.5222 28.4873 5.8014 27.2001 4.15651C23.6883 -0.330419 17.6093 1.79163 17.5078 1.84663L17.4752 1.85254C16.8075 1.7139 16.0603 1.6314 15.2205 1.61765C13.6914 1.59265 12.5314 2.01856 11.6511 2.68606C11.6511 2.68606 0.806825 -1.78144 1.31126 8.3047C1.41853 10.4504 4.38671 24.5403 7.92694 20.2845C9.22092 18.7282 10.4713 17.4124 10.4713 17.4124C11.0922 17.8249 11.8356 18.0354 12.6149 17.9598L12.6755 17.9084C12.6566 18.1016 12.6652 18.2906 12.6997 18.5144C11.7876 19.5333 12.0557 19.7122 10.2325 20.0875C8.38762 20.4678 9.47137 21.1446 10.179 21.3216C11.0368 21.5361 13.0214 21.8399 14.3623 19.9628L14.3089 20.177C14.6661 20.4632 14.9171 22.0387 14.875 23.467C14.833 24.8952 14.8049 25.8757 15.0864 26.6416C15.3681 27.4075 15.6486 29.1308 18.0455 28.6173C20.0481 28.1881 21.0859 27.0759 21.2303 25.2207C21.3327 23.9019 21.5647 24.0969 21.5792 22.9177L21.7652 22.3595C21.9797 20.5716 21.7993 19.9948 23.0331 20.2631L23.3331 20.2895C24.241 20.3307 25.4297 20.1433 26.1273 19.8191C27.6293 19.1221 28.5202 17.9581 27.0391 18.2639H27.0393Z" fill="#336791"/>
<path id="Vector_3" d="M12.2859 9.26431C11.9814 9.22193 11.7056 9.26113 11.5661 9.36681C11.4876 9.42624 11.4633 9.49511 11.4567 9.54249C11.4392 9.66806 11.5272 9.80693 11.5813 9.87852C11.7342 10.0812 11.9576 10.2206 12.1788 10.2512C12.2108 10.2558 12.2428 10.2578 12.2745 10.2578C12.6432 10.2578 12.9786 9.97068 13.0081 9.75874C13.045 9.49329 12.6597 9.31624 12.2859 9.26431ZM22.375 9.27272C22.3459 9.06465 21.9757 9.00534 21.6243 9.0542C21.2734 9.10306 20.9332 9.26147 20.9616 9.46999C20.9843 9.63215 21.2772 9.90897 21.6238 9.90897C21.6531 9.90897 21.6826 9.90704 21.7124 9.90283C21.9438 9.87079 22.1136 9.72386 22.1942 9.6392C22.317 9.51011 22.3881 9.36624 22.375 9.27272Z" fill="#C6C6C6"/>
<path id="Vector_4" d="M28.1638 18.1846C28.0349 17.795 27.6202 17.6696 26.9311 17.8119C24.8851 18.2342 24.1523 17.9417 23.9118 17.7645C25.5021 15.3418 26.8104 12.4132 27.5162 9.68078C27.8505 8.38646 28.0352 7.18442 28.0503 6.20464C28.067 5.1293 27.8838 4.33908 27.5061 3.85635C25.9831 1.91033 23.7479 0.866462 21.0422 0.837826C19.1821 0.816917 17.6105 1.29294 17.3059 1.4268C16.6643 1.26726 15.9648 1.1693 15.2034 1.1568C13.807 1.13419 12.5999 1.46851 11.6006 2.14999C11.1665 1.98839 10.0447 1.60328 8.67278 1.38226C6.30096 1.00044 4.41619 1.28976 3.07119 2.2426C1.46631 3.37964 0.725396 5.41214 0.868919 8.28351C0.917215 9.24953 1.46767 12.2213 2.33631 15.0674C3.47971 18.8133 4.72267 20.9338 6.0304 21.3701C6.18346 21.4211 6.35994 21.4568 6.5546 21.4568C7.03165 21.4568 7.61653 21.2418 8.22506 20.5102C8.96728 19.6198 9.73506 18.751 10.5274 17.905C11.0415 18.1809 11.6063 18.335 12.1839 18.3504C12.1851 18.3656 12.1865 18.3807 12.1879 18.3957C12.0885 18.5142 11.9911 18.6345 11.8959 18.7565C11.4956 19.2645 11.4123 19.3703 10.124 19.6356C9.75756 19.7112 8.78426 19.9118 8.76994 20.5941C8.75449 21.3395 9.92051 21.6526 10.0534 21.6858C10.5163 21.8017 10.9623 21.8588 11.3877 21.8588C12.4221 21.8588 13.3324 21.5188 14.0599 20.861C14.0376 23.5185 14.1484 26.1371 14.4674 26.935C14.7288 27.5882 15.3672 29.1844 17.3838 29.1843C17.6797 29.1843 18.0054 29.1499 18.3637 29.0731C20.4684 28.6219 21.3823 27.6917 21.7359 25.6409C21.9251 24.5449 22.2497 21.9277 22.4024 20.5238C22.7247 20.6244 23.1396 20.6704 23.5881 20.6703C24.5236 20.6703 25.603 20.4716 26.2799 20.1574C27.0404 19.8042 28.4127 18.9376 28.1638 18.1846ZM23.1518 8.69828C23.1448 9.11271 23.0878 9.48896 23.0273 9.88169C22.9622 10.3041 22.8949 10.7408 22.878 11.2709C22.8613 11.7868 22.9257 12.3232 22.988 12.8419C23.1139 13.8896 23.2431 14.9683 22.743 16.0326C22.6599 15.8854 22.5859 15.7333 22.5214 15.577C22.4593 15.4263 22.3243 15.1843 22.1373 14.8493C21.4102 13.5452 19.7073 10.4913 20.579 9.24521C20.8387 8.8743 21.4977 8.49294 23.1518 8.69828ZM21.1468 1.67703C23.5711 1.73055 25.4888 2.63749 26.8465 4.37249C27.8879 5.70328 26.7412 11.7586 23.4215 16.9826C23.3882 16.9401 23.3546 16.8978 23.3209 16.8557L23.2788 16.8032C24.1366 15.3865 23.9689 13.9848 23.8196 12.742C23.7582 12.232 23.7003 11.7503 23.7151 11.2978C23.7303 10.8183 23.7937 10.4069 23.8551 10.0092C23.9304 9.51908 24.0071 9.01192 23.986 8.41408C24.0018 8.35135 24.0081 8.27726 23.9998 8.1893C23.9459 7.61601 23.2913 5.90021 21.9572 4.34726C21.2274 3.49783 20.1632 2.54726 18.7102 1.90612C19.3352 1.77658 20.1898 1.65578 21.1468 1.67703ZM7.58108 19.9748C6.91062 20.7809 6.44767 20.6263 6.2954 20.5757C5.30335 20.2448 4.15221 18.1479 3.13733 14.8229C2.25915 11.9459 1.74596 9.05283 1.70528 8.24158C1.5771 5.67589 2.19903 3.88783 3.55392 2.92692C5.75892 1.36328 9.38415 2.29919 10.8409 2.77385C10.8199 2.79453 10.7981 2.81385 10.7774 2.83487C8.38699 5.24896 8.44369 9.37351 8.4496 9.62567C8.44937 9.72294 8.45756 9.86067 8.46869 10.0501C8.50983 10.7438 8.58642 12.035 8.38187 13.4971C8.19187 14.8559 8.61074 16.1858 9.53085 17.1459C9.62528 17.2442 9.72453 17.3378 9.82824 17.4263C9.41869 17.865 8.52858 18.835 7.58108 19.9748ZM10.1355 16.5665C9.39392 15.7926 9.0571 14.7162 9.21131 13.6131C9.42721 12.0685 9.34756 10.7233 9.30472 10.0006C9.29869 9.89942 9.29335 9.81078 9.29028 9.74089C9.63949 9.43124 11.2578 8.56419 12.4119 8.82862C12.9385 8.94919 13.2594 9.30783 13.3928 9.92464C14.0832 13.1182 13.4841 14.4492 13.0028 15.5188C12.9036 15.7392 12.8098 15.9475 12.7298 16.1629L12.6678 16.3295C12.5107 16.7507 12.3646 17.1423 12.274 17.5141C11.4856 17.5118 10.7187 17.175 10.1355 16.5663V16.5665ZM10.2565 20.8733C10.0263 20.8158 9.81926 20.7159 9.69778 20.6331C9.79926 20.5853 9.97983 20.5203 10.293 20.4558C11.8086 20.1438 12.0427 19.9236 12.5538 19.2746C12.671 19.1258 12.8038 18.9571 12.9878 18.7517L12.988 18.7515C13.262 18.4446 13.3873 18.4967 13.6146 18.591C13.7988 18.6671 13.9782 18.8981 14.051 19.1521C14.0854 19.2721 14.124 19.4999 13.9976 19.6771C12.9298 21.1721 11.3739 21.1529 10.2565 20.8733ZM18.1882 28.2542C16.3341 28.6515 15.6777 27.7054 15.2451 26.624C14.9659 25.9258 14.8286 22.7774 14.926 19.3004C14.9272 19.2542 14.9206 19.2095 14.9079 19.1675C14.8965 19.0845 14.8792 19.0024 14.8561 18.9218C14.7113 18.4159 14.3585 17.9927 13.9352 17.8173C13.767 17.7476 13.4584 17.6198 13.0874 17.7146C13.1665 17.3887 13.3037 17.0207 13.4524 16.6221L13.5148 16.4545C13.5851 16.2656 13.6732 16.0698 13.7664 15.8625C14.2702 14.7434 14.9601 13.2106 14.2113 9.74771C13.9309 8.45067 12.9943 7.81726 11.5745 7.96442C10.7234 8.05249 9.9446 8.39589 9.55619 8.59283C9.47267 8.6351 9.39631 8.67601 9.32494 8.71578C9.43335 7.40896 9.8429 4.96669 11.3749 3.42146C12.3396 2.44874 13.6243 1.96828 15.1895 1.99419C18.2736 2.04464 20.2513 3.62737 21.3674 4.94635C22.3293 6.08283 22.8501 7.22771 23.0579 7.84521C21.4948 7.68624 20.4318 7.99476 19.8929 8.76521C18.7205 10.4411 20.5343 13.6938 21.406 15.2571C21.5659 15.5436 21.7038 15.7912 21.7472 15.8965C22.0311 16.5844 22.3986 17.0437 22.6669 17.379C22.7491 17.4817 22.8289 17.5813 22.8896 17.6684C22.4162 17.8049 21.5659 18.1202 21.6434 19.6965C21.5809 20.4874 21.1364 24.1903 20.9106 25.4986C20.6126 27.227 19.9765 27.8708 18.1882 28.2543V28.2542ZM25.9273 19.3978C25.4432 19.6225 24.6331 19.791 23.8636 19.8273C23.0136 19.867 22.5809 19.732 22.479 19.649C22.4313 18.6667 22.7969 18.5641 23.1838 18.4554C23.2446 18.4384 23.3039 18.4217 23.3612 18.4017C23.3968 18.4307 23.4357 18.4594 23.4785 18.4876C24.1616 18.9385 25.3802 18.9871 27.1005 18.632L27.1194 18.6283C26.8873 18.8452 26.4903 19.1363 25.9273 19.3978Z" fill="#C6C6C6"/>
</g>
<defs>
<clipPath id="clip0_105_176">
<rect width="29.1" height="30" fill="white"/>
</clipPath>
</defs>
</svg>
