<svg width="30" height="30" viewBox="0 0 30 30" fill="none" xmlns="http://www.w3.org/2000/svg">
<g id="regex" clip-path="url(#clip0_105_145)">
<g id="Group">
<path id="Vector" d="M22.9688 0H7.03125C3.148 0 0 3.148 0 7.03125V22.9688C0 26.852 3.148 30 7.03125 30H22.9688C26.852 30 30 26.852 30 22.9688V7.03125C30 3.148 26.852 0 22.9688 0Z" fill="#242938"/>
<path id="Vector_2" d="M5.14869 14.9946C5.14526 16.2975 5.32297 17.5945 5.67674 18.8484C6.0331 20.0741 6.55775 21.2514 7.23767 22.3509C7.293 22.4425 7.33261 22.5427 7.35486 22.6474C7.37626 22.7228 7.37626 22.8026 7.35486 22.8779C7.32991 22.9416 7.28966 22.9982 7.23767 23.0427L7.07326 23.1634L6.0992 23.7124C5.60742 23.0161 5.17182 22.2818 4.79654 21.5164C4.44725 20.8096 4.15682 20.0752 3.92818 19.3206C3.7039 18.6034 3.53901 17.8689 3.43517 17.1246C3.22994 15.6164 3.22994 14.0873 3.43517 12.5791C3.53901 11.8349 3.70391 11.1004 3.92818 10.3832C4.15781 9.62894 4.44821 8.89458 4.79654 8.1873C5.17075 7.49877 5.59436 6.83825 6.06404 6.21094L7.0381 6.77086L7.2024 6.89156C7.25378 6.93662 7.29394 6.99303 7.3197 7.05633C7.34111 7.13171 7.34111 7.21157 7.3197 7.28695C7.29703 7.39152 7.25741 7.49167 7.2024 7.58344C5.84103 9.8448 5.1331 12.3991 5.14869 14.9946ZM9.11525 18.8484C9.11232 18.6258 9.15633 18.4051 9.24439 18.2006C9.32986 18.0028 9.45351 17.8237 9.60826 17.6736C9.85658 17.4409 10.1737 17.283 10.5188 17.2204C10.8635 17.1577 11.2189 17.1931 11.5445 17.3223C11.9674 17.4902 12.3039 17.8051 12.4835 18.2006C12.5773 18.4036 12.6254 18.6248 12.6243 18.8484C12.6258 19.0721 12.5777 19.2934 12.4835 19.4962C12.393 19.6942 12.2655 19.8731 12.1079 20.0232C11.9446 20.1757 11.7533 20.2951 11.5445 20.3746C11.0983 20.5431 10.606 20.5431 10.1597 20.3746C9.95369 20.2956 9.76571 20.1758 9.60708 20.0224C9.44846 19.869 9.32247 19.6851 9.23666 19.4818C9.15232 19.2815 9.11096 19.0657 9.11525 18.8484ZM21.7898 13.6661L21.1561 14.6981L19.1023 13.6002L18.7033 13.3477C18.5853 13.2673 18.4787 13.1712 18.3864 13.0622C18.4875 13.3281 18.5277 13.6132 18.5038 13.8967V16.0925H17.3302V13.8967C17.3235 13.6121 17.3713 13.3288 17.4711 13.0622C17.2828 13.2828 17.0511 13.4622 16.7904 13.5892L14.7485 14.6872L14.1147 13.6552L16.145 12.5571C16.4181 12.4015 16.7158 12.2938 17.0252 12.2387C16.713 12.2013 16.4126 12.0964 16.145 11.9313L14.0443 10.8224L14.678 9.79031L16.7317 10.8882L17.119 11.1518C17.2358 11.238 17.3421 11.3375 17.4359 11.4483C17.3422 11.1769 17.3062 10.8889 17.3302 10.6028V8.4068H18.5038V10.6028C18.5145 10.749 18.5145 10.8957 18.5038 11.042C18.4842 11.1788 18.4447 11.312 18.3864 11.4373C18.5851 11.22 18.8192 11.0381 19.0789 10.8993L21.1209 9.80121L21.7546 10.8334L19.7244 11.9313L19.3019 12.1289C19.1675 12.1846 19.0252 12.2215 18.8794 12.2387C19.0235 12.2636 19.1648 12.3004 19.3019 12.3485C19.4492 12.4041 19.5907 12.474 19.7244 12.5571L21.7898 13.6661ZM24.8058 14.9946C24.809 13.6918 24.6313 12.3948 24.2778 11.1408C23.9275 9.88688 23.407 8.68043 22.7287 7.55039C22.6737 7.45861 22.634 7.35847 22.6113 7.25391C22.5919 7.17829 22.5919 7.09902 22.6113 7.0234C22.6354 6.95925 22.6759 6.9025 22.7287 6.85875L22.893 6.73805L23.9022 6.21094C24.3876 6.90913 24.8192 7.64324 25.1931 8.40691C25.5417 9.1141 25.8322 9.84847 26.0616 10.6028C26.286 11.32 26.4508 12.0545 26.5545 12.7988C26.6578 13.5263 26.7126 14.2598 26.7188 14.9946C26.7164 15.7292 26.6655 16.4628 26.5662 17.1906C26.4626 17.9348 26.2977 18.6693 26.0733 19.3864C25.8449 20.1411 25.5544 20.8756 25.2049 21.5824C24.8311 22.3462 24.3995 23.0803 23.9139 23.7783L22.9281 23.2293L22.7638 23.1086C22.7107 23.0651 22.6702 23.0082 22.6465 22.9438C22.6266 22.8682 22.6266 22.7888 22.6465 22.7133C22.6688 22.6086 22.7085 22.5084 22.7638 22.4168C23.4366 21.3012 23.9533 20.1093 24.3012 18.8704C24.6484 17.6081 24.8183 16.3037 24.8058 14.9946Z" fill="#3366CC"/>
</g>
</g>
<defs>
<clipPath id="clip0_105_145">
<rect width="30" height="30" fill="white"/>
</clipPath>
</defs>
</svg>
