<svg width="31" height="30" viewBox="0 0 31 30" fill="none" xmlns="http://www.w3.org/2000/svg">
<g id="sql">
<path id="Vector" d="M8.91687 14.3025C11.1556 15.0894 13.5174 15.4682 15.89 15.4209C18.2626 15.4679 20.6244 15.0888 22.8631 14.3016C24.6106 13.62 25.2303 12.8625 25.2303 12.4266V9.09375C24.6194 9.50289 23.9639 9.84131 23.2766 10.1025C20.9079 10.9507 18.4056 11.3642 15.89 11.3231C13.3746 11.3634 10.8725 10.9506 8.50343 10.1044C7.81575 9.84317 7.16023 9.50409 6.54968 9.09375V12.4219C6.54968 12.8663 7.17125 13.62 8.91687 14.3025ZM8.91687 20.5884C9.70775 20.8901 10.5233 21.1225 11.3544 21.2831C12.8488 21.5722 14.3679 21.7145 15.89 21.7078C17.4121 21.7148 18.9312 21.5728 20.4256 21.2841C21.2567 21.1234 22.0722 20.891 22.8631 20.5894C24.6106 19.9078 25.2303 19.1503 25.2303 18.7144V15.5363C24.7253 15.8401 24.1945 16.0989 23.6441 16.3097C21.1557 17.1907 18.5293 17.6172 15.89 17.5688C13.2505 17.6157 10.624 17.1876 8.13593 16.305C7.58573 16.0937 7.05498 15.8349 6.54968 15.5316V18.7125C6.54968 19.1494 7.17125 19.9041 8.91687 20.5884ZM15.89 28.125C21.0462 28.125 25.2303 26.49 25.2303 24.4744V21.8147C24.7709 22.0916 24.2896 22.3305 23.7912 22.5291L23.6441 22.5881C21.1562 23.4718 18.5297 23.9008 15.89 23.8547C13.2502 23.9021 10.6235 23.4731 8.13593 22.5881C8.08531 22.5694 8.03656 22.5478 7.98874 22.5291C7.49039 22.3305 7.0091 22.0916 6.54968 21.8147V24.4744C6.54968 26.49 10.7337 28.125 15.89 28.125Z" fill="#FFDA44"/>
<path id="Vector_2" d="M15.89 9.17625C21.0485 9.17625 25.2303 7.54181 25.2303 5.52562C25.2303 3.50944 21.0485 1.875 15.89 1.875C10.7315 1.875 6.54968 3.50944 6.54968 5.52562C6.54968 7.54181 10.7315 9.17625 15.89 9.17625Z" fill="#FFDA44"/>
</g>
</svg>
