<svg width="30" height="30" viewBox="0 0 30 30" fill="none" xmlns="http://www.w3.org/2000/svg">
<g id="unity" clip-path="url(#clip0_105_98)">
<g id="Group">
<path id="Vector" d="M22.9688 0H7.03125C3.148 0 0 3.148 0 7.03125V22.9688C0 26.852 3.148 30 7.03125 30H22.9688C26.852 30 30 26.852 30 22.9688V7.03125C30 3.148 26.852 0 22.9688 0Z" fill="#242938"/>
<path id="Vector_2" d="M25.3175 19.6657V8.75894L15.8649 3.30551V7.49848L19.5733 9.63141C19.7187 9.70406 19.7187 9.92227 19.5733 9.99492L15.162 12.5399C15.0408 12.6127 14.8712 12.6127 14.75 12.5399L10.3388 9.97078C10.1935 9.89812 10.1935 9.67992 10.3388 9.60715L14.0472 7.47434V3.28125L4.5946 8.73469V19.6657L8.23023 17.5813V13.2913C8.23023 13.1459 8.3998 13.0247 8.54523 13.1216L12.9564 15.6666C13.0777 15.7392 13.1746 15.8846 13.1746 16.0301V21.1199C13.1746 21.2653 13.0049 21.3865 12.8595 21.2896L9.15121 19.1566L5.51558 21.2411L14.9682 26.6945L24.4207 21.2411L20.7851 19.1566L17.0768 21.2896C16.9557 21.3622 16.7617 21.2653 16.7617 21.1199V16.0301C16.7617 15.8846 16.8344 15.7392 16.9798 15.6666L21.3911 13.1216C21.5123 13.0488 21.7061 13.1459 21.7061 13.2913V17.5813L25.3175 19.6657Z" fill="#CCCCCC"/>
<path id="Vector_3" d="M14.9438 26.7188L24.3964 21.2654L20.7608 19.181L17.0525 21.3139C16.9313 21.3867 16.7374 21.2897 16.7374 21.1442V16.0544C16.7374 15.909 16.8102 15.7636 16.9556 15.6909L21.3668 13.1459C21.4879 13.0733 21.6819 13.1702 21.6819 13.3156V17.6056L25.3174 19.69V8.75903L14.9438 14.7456V26.7188Z" fill="#A6A6A6"/>
<path id="Vector_4" d="M15.8407 3.28125V7.47422L19.549 9.60715C19.6944 9.67981 19.6944 9.89801 19.549 9.97078L15.1378 12.5156C15.0167 12.5884 14.847 12.5884 14.7258 12.5156L10.3388 9.97078C10.1935 9.89812 10.1935 9.67992 10.3388 9.60715L14.0472 7.47434V3.28125L4.5946 8.73469L14.9682 14.7212L25.3417 8.73469L15.8407 3.28125Z" fill="#C6C6C6"/>
<path id="Vector_5" d="M12.8109 21.2895L9.10266 19.1567L5.46715 21.2411L14.9196 26.6945V14.7213L4.57031 8.75879V19.6899L8.20594 17.6055V13.3155C8.20594 13.1701 8.37562 13.0489 8.52105 13.1458L12.9322 15.6908C13.0534 15.7634 13.1503 15.9089 13.1503 16.0543V21.1441C13.1261 21.2653 12.9564 21.3623 12.8109 21.2895Z" fill="#CCCCCC"/>
</g>
</g>
<defs>
<clipPath id="clip0_105_98">
<rect width="30" height="30" fill="white"/>
</clipPath>
</defs>
</svg>
