<svg width="30" height="30" viewBox="0 0 30 30" fill="none" xmlns="http://www.w3.org/2000/svg">
<g id="visual-studio1" clip-path="url(#clip0_105_63)">
<path id="Vector" d="M4.33441 23.4852C4.15865 23.6354 3.94468 23.7339 3.71628 23.7698C3.48788 23.8056 3.25401 23.7775 3.04066 23.6884L0.76875 22.7352C0.542149 22.6407 0.348404 22.4815 0.211691 22.2776C0.0749781 22.0736 0.00135188 21.8339 0 21.5884L0 8.25714C0.00132892 8.0116 0.0749445 7.77189 0.211659 7.56792C0.348373 7.36395 0.542131 7.20477 0.76875 7.11023L3.04066 6.17273C3.254 6.08363 3.48787 6.05544 3.71626 6.09129C3.94466 6.12715 4.15864 6.22564 4.33441 6.37582L4.84371 6.79769C4.74042 6.72343 4.61862 6.67914 4.49175 6.66972C4.36488 6.66029 4.23787 6.68609 4.12474 6.74428C4.0116 6.80246 3.91674 6.89077 3.85062 6.99945C3.78449 7.10814 3.74967 7.23297 3.75 7.36019V22.4852C3.74967 22.6124 3.78449 22.7373 3.85062 22.846C3.91674 22.9547 4.0116 23.043 4.12474 23.1011C4.23787 23.1593 4.36488 23.1851 4.49175 23.1757C4.61862 23.1663 4.74042 23.122 4.84371 23.0477L4.33441 23.4852Z" fill="#52218A"/>
<path id="Vector_2" d="M0.76875 22.735C0.542149 22.6405 0.348404 22.4813 0.211691 22.2774C0.0749781 22.0735 0.00135188 21.8338 0 21.5882L0 21.4851C0.00153986 21.6294 0.0462862 21.7699 0.128464 21.8885C0.210643 22.0071 0.326481 22.0984 0.461031 22.1505C0.59558 22.2027 0.742666 22.2133 0.883306 22.181C1.02395 22.1487 1.15168 22.075 1.25004 21.9695L20.625 0.547576C20.8994 0.274556 21.2515 0.0931482 21.6331 0.0282512C22.0147 -0.0366458 22.4071 0.018149 22.7563 0.185115L28.9375 3.16004C29.2559 3.31312 29.5245 3.55304 29.7125 3.85216C29.9005 4.15127 30.0002 4.49742 30 4.8507V4.92254C29.9998 4.69842 29.936 4.47897 29.816 4.28966C29.6961 4.10036 29.5249 3.94897 29.3223 3.8531C29.1197 3.75722 28.8941 3.72078 28.6717 3.74801C28.4492 3.77525 28.239 3.86504 28.0656 4.00695L4.84371 23.0476L4.33441 23.485C4.15865 23.6352 3.94468 23.7337 3.71628 23.7696C3.48788 23.8055 3.25401 23.7773 3.04066 23.6882L0.76875 22.735Z" fill="#6C33AF"/>
<path id="Vector_3" d="M0.76875 7.11007C0.542131 7.20461 0.348373 7.3638 0.211659 7.56776C0.0749445 7.77173 0.00132892 8.01144 0 8.25699L0 8.36011C0.0015168 8.21581 0.0462465 8.07528 0.128416 7.95666C0.210585 7.83803 0.326423 7.74675 0.460977 7.69461C0.595531 7.64246 0.742627 7.63184 0.883277 7.66411C1.02393 7.69638 1.15168 7.77007 1.25004 7.87566L20.625 29.2975C20.8994 29.5706 21.2515 29.752 21.6331 29.8169C22.0147 29.8818 22.4071 29.8271 22.7563 29.6601L28.9375 26.6851C29.2559 26.532 29.5245 26.2921 29.7125 25.993C29.9005 25.6938 30.0002 25.3477 30 24.9944V24.9226C29.9998 25.1467 29.936 25.3661 29.816 25.5554C29.6961 25.7448 29.5249 25.8961 29.3223 25.992C29.1197 26.0879 28.8941 26.1243 28.6717 26.0971C28.4492 26.0699 28.239 25.9801 28.0656 25.8382L4.84371 6.79754L4.33441 6.36007C4.15708 6.21247 3.94235 6.11682 3.714 6.08373C3.48566 6.05063 3.25261 6.08138 3.04066 6.17257L0.76875 7.11007Z" fill="#854CC7"/>
<path id="Vector_4" d="M22.7563 29.6601C22.4071 29.8271 22.0147 29.8818 21.6331 29.8169C21.2515 29.752 20.8994 29.5706 20.625 29.2975C20.779 29.4504 20.9748 29.5543 21.1877 29.5962C21.4006 29.6381 21.6212 29.616 21.8216 29.5328C22.022 29.4497 22.1934 29.3091 22.3141 29.1287C22.4348 28.9484 22.4995 28.7364 22.5 28.5194V1.33191C22.5007 1.11438 22.4369 0.901525 22.3167 0.720247C22.1964 0.538968 22.0252 0.397408 21.8245 0.313462C21.6238 0.229515 21.4027 0.206951 21.1892 0.248622C20.9757 0.290293 20.7794 0.394328 20.625 0.547576C20.8994 0.274556 21.2515 0.0931482 21.6331 0.0282512C22.0147 -0.0366458 22.4071 0.018149 22.7563 0.185115L28.9375 3.15699C29.2558 3.31006 29.5245 3.54997 29.7125 3.84906C29.9005 4.14816 30.0001 4.49427 30 4.84754V24.9976C30.0002 25.3509 29.9005 25.697 29.7125 25.9961C29.5245 26.2952 29.2559 26.5352 28.9375 26.6882L22.7563 29.6601Z" fill="#B179F1"/>
<path id="Vector_5" d="M21.5282 29.7976C21.9413 29.8919 22.3742 29.8434 22.7563 29.6602L28.9375 26.6883C29.2559 26.5352 29.5245 26.2953 29.7125 25.9962C29.9005 25.697 30.0002 25.3509 30 24.9976V4.84758C30.0001 4.49431 29.9005 4.1482 29.7125 3.8491C29.5245 3.55001 29.2558 3.31011 28.9375 3.15703L22.7563 0.185157C22.3189 -0.0251137 21.8171 -0.0576265 21.3563 0.0944542C21.0807 0.186793 20.8303 0.341931 20.625 0.547618L10.6625 11.5664L4.84371 6.79758L4.33441 6.36012C4.18121 6.22914 3.9986 6.13715 3.80216 6.09199C3.60572 6.04683 3.40127 6.04985 3.20625 6.10078C3.14916 6.1134 3.09363 6.13226 3.04066 6.15703L0.76875 7.11012C0.556108 7.19792 0.371821 7.34271 0.236183 7.52853C0.100545 7.71435 0.0188174 7.934 0 8.16328L0 21.682C0.0187995 21.9113 0.100522 22.131 0.236163 22.3168C0.371805 22.5026 0.556102 22.6473 0.76875 22.7351L3.04066 23.6726C3.09363 23.6973 3.14916 23.7162 3.20625 23.7288C3.60211 23.8322 4.0234 23.7354 4.33441 23.4695L4.84371 23.0476L10.6625 18.2789L20.625 29.2976C20.8733 29.5455 21.1863 29.7187 21.5282 29.7976ZM22.5 8.57262L14.7531 14.9227L22.5 21.2726V8.57262ZM3.75 10.632L7.62809 14.9227L3.75 19.2132V10.632Z" fill="url(#paint0_linear_105_63)" fill-opacity="0.25"/>
</g>
<defs>
<linearGradient id="paint0_linear_105_63" x1="1500" y1="0.0596892" x2="1500" y2="2984.46" gradientUnits="userSpaceOnUse">
<stop stop-color="white"/>
<stop offset="1" stop-color="white" stop-opacity="0"/>
</linearGradient>
<clipPath id="clip0_105_63">
<rect width="30" height="30" fill="white"/>
</clipPath>
</defs>
</svg>
