<svg width="31" height="30" viewBox="0 0 31 30" fill="none" xmlns="http://www.w3.org/2000/svg">
<g id="visual-studio2" clip-path="url(#clip0_105_69)">
<g id="Mask group">
<mask id="mask0_105_69" style="mask-type:luminance" maskUnits="userSpaceOnUse" x="0" y="0" width="31" height="30">
<g id="Group">
<path id="Vector" d="M21.3595 29.8351C21.5991 29.9286 21.8554 29.9717 22.1125 29.9618C22.3695 29.952 22.6218 29.8893 22.8535 29.7777L29.0545 26.794C29.3738 26.6403 29.6433 26.3995 29.8319 26.0993C30.0204 25.7992 30.1204 25.452 30.1204 25.0975V4.86569C30.1204 4.51126 30.0204 4.16401 29.8318 3.86391C29.6433 3.5638 29.3738 3.32302 29.0545 3.16928L22.8537 0.185457C22.5033 0.0168548 22.1092 -0.0386586 21.7258 0.0266004C21.3425 0.0918593 20.989 0.274663 20.7141 0.549709L8.8432 11.3798L3.67233 7.45479C3.43908 7.27773 3.15121 7.18792 2.85867 7.20093C2.56612 7.21394 2.28736 7.32895 2.07075 7.52601L0.412368 9.03463C-0.134483 9.53199 -0.135073 10.3923 0.410951 10.8905L4.89524 14.9816L0.410951 19.0726C-0.135073 19.5709 -0.134483 20.4311 0.412368 20.9286L2.07075 22.4371C2.28735 22.6341 2.5661 22.7492 2.85865 22.7622C3.15119 22.7752 3.43907 22.6854 3.67233 22.5084L8.8432 18.5833L20.7141 29.4134C20.8976 29.5972 21.1174 29.7408 21.3595 29.8351V29.8351ZM22.5954 8.14432L13.588 14.9816L22.5954 21.8188V8.14432V8.14432Z" fill="#0065A9"/>
</g>
</mask>
<g mask="url(#mask0_105_69)">
<path id="Vector_2" d="M29.0729 3.17392L22.8671 0.185964C22.5166 0.017226 22.1224 -0.0384056 21.7389 0.0267674C21.3554 0.0919405 21.0017 0.274696 20.7266 0.549744L0.411172 19.0726C-0.135206 19.5709 -0.134497 20.4311 0.412589 20.9286L2.07204 22.4371C2.28883 22.6342 2.56775 22.7493 2.86047 22.7623C3.15318 22.7753 3.44123 22.6855 3.67468 22.5084L28.1391 3.94907C28.9598 3.32652 30.1387 3.91187 30.1387 4.94203V4.86998C30.1387 4.51562 30.0387 4.16845 29.8501 3.86841C29.6616 3.56837 29.3922 3.32764 29.0729 3.17392Z" fill="#0065A9"/>
</g>
</g>
<g id="Mask group_2">
<mask id="mask1_105_69" style="mask-type:luminance" maskUnits="userSpaceOnUse" x="0" y="0" width="31" height="30">
<g id="Group_2">
<path id="Vector_3" d="M21.3595 29.8351C21.5991 29.9286 21.8554 29.9717 22.1125 29.9618C22.3695 29.952 22.6218 29.8893 22.8535 29.7777L29.0545 26.794C29.3738 26.6403 29.6433 26.3995 29.8319 26.0993C30.0204 25.7992 30.1204 25.452 30.1204 25.0975V4.86569C30.1204 4.51126 30.0204 4.16401 29.8318 3.86391C29.6433 3.5638 29.3738 3.32302 29.0545 3.16928L22.8537 0.185457C22.5033 0.0168548 22.1092 -0.0386586 21.7258 0.0266004C21.3425 0.0918593 20.989 0.274663 20.7141 0.549709L8.8432 11.3798L3.67233 7.45479C3.43908 7.27773 3.15121 7.18792 2.85867 7.20093C2.56612 7.21394 2.28736 7.32895 2.07075 7.52601L0.412368 9.03463C-0.134483 9.53199 -0.135073 10.3923 0.410951 10.8905L4.89524 14.9816L0.410951 19.0726C-0.135073 19.5709 -0.134483 20.4311 0.412368 20.9286L2.07075 22.4371C2.28735 22.6341 2.5661 22.7492 2.85865 22.7622C3.15119 22.7752 3.43907 22.6854 3.67233 22.5084L8.8432 18.5833L20.7141 29.4134C20.8976 29.5972 21.1174 29.7408 21.3595 29.8351V29.8351ZM22.5954 8.14432L13.588 14.9816L22.5954 21.8188V8.14432V8.14432Z" fill="#007ACC"/>
</g>
</mask>
<g mask="url(#mask1_105_69)">
<path id="Vector_4" d="M29.0729 26.7893L22.8671 29.7772C22.5166 29.9459 22.1224 30.0015 21.7389 29.9364C21.3554 29.8712 21.0017 29.6885 20.7266 29.4134L0.411172 10.8906C-0.135206 10.3924 -0.134497 9.53206 0.412589 9.0347L2.07204 7.52608C2.28884 7.32898 2.56778 7.21395 2.86049 7.20095C3.15321 7.18794 3.44125 7.27776 3.67468 7.45486L28.1391 26.0141C28.9598 26.6367 30.1387 26.0513 30.1387 25.021V25.0932C30.1387 25.4476 30.0386 25.7947 29.8501 26.0948C29.6615 26.3948 29.3921 26.6355 29.0729 26.7893Z" fill="#007ACC"/>
</g>
</g>
<g id="Mask group_3">
<mask id="mask2_105_69" style="mask-type:luminance" maskUnits="userSpaceOnUse" x="0" y="0" width="31" height="30">
<g id="Group_3">
<path id="Vector_5" d="M21.3595 29.8351C21.5991 29.9286 21.8554 29.9717 22.1125 29.9618C22.3695 29.952 22.6218 29.8893 22.8535 29.7777L29.0545 26.794C29.3738 26.6403 29.6433 26.3995 29.8319 26.0993C30.0204 25.7992 30.1204 25.452 30.1204 25.0975V4.86569C30.1204 4.51126 30.0204 4.16401 29.8318 3.86391C29.6433 3.5638 29.3738 3.32302 29.0545 3.16928L22.8537 0.185457C22.5033 0.0168548 22.1092 -0.0386586 21.7258 0.0266004C21.3425 0.0918593 20.989 0.274663 20.7141 0.549709L8.8432 11.3798L3.67233 7.45479C3.43908 7.27773 3.15121 7.18792 2.85867 7.20093C2.56612 7.21394 2.28736 7.32895 2.07075 7.52601L0.412368 9.03463C-0.134483 9.53199 -0.135073 10.3923 0.410951 10.8905L4.89524 14.9816L0.410951 19.0726C-0.135073 19.5709 -0.134483 20.4311 0.412368 20.9286L2.07075 22.4371C2.28735 22.6341 2.5661 22.7492 2.85865 22.7622C3.15119 22.7752 3.43907 22.6854 3.67233 22.5084L8.8432 18.5833L20.7141 29.4134C20.8976 29.5972 21.1174 29.7408 21.3595 29.8351V29.8351ZM22.5954 8.14432L13.588 14.9816L22.5954 21.8188V8.14432V8.14432Z" fill="#1F9CF0"/>
</g>
</mask>
<g mask="url(#mask2_105_69)">
<path id="Vector_6" d="M22.8477 29.7796C22.4971 29.9482 22.1028 30.0038 21.7193 29.9385C21.3358 29.8733 20.982 29.6905 20.7069 29.4155C21.4015 30.1099 22.5894 29.618 22.5894 28.6356V1.33144C22.5894 0.348999 21.4015 -0.14293 20.7069 0.551676C20.982 0.276606 21.3358 0.0938043 21.7193 0.0285499C22.1028 -0.0367046 22.4971 0.0188125 22.8477 0.187424L29.0523 3.17124C29.3718 3.32488 29.6414 3.56562 29.8301 3.86574C30.0188 4.16586 30.1189 4.51316 30.1189 4.86766V25.0996C30.1189 25.823 29.7043 26.4825 29.0523 26.796L22.8477 29.7796Z" fill="#1F9CF0"/>
</g>
</g>
<g id="Mask group_4">
<mask id="mask3_105_69" style="mask-type:luminance" maskUnits="userSpaceOnUse" x="0" y="0" width="31" height="30">
<g id="Group_4">
<path id="Vector_7" d="M21.3595 29.8351C21.5991 29.9286 21.8554 29.9717 22.1125 29.9618C22.3695 29.952 22.6218 29.8893 22.8535 29.7777L29.0545 26.794C29.3738 26.6403 29.6433 26.3995 29.8319 26.0993C30.0204 25.7992 30.1204 25.452 30.1204 25.0975V4.86569C30.1204 4.51126 30.0204 4.16401 29.8318 3.86391C29.6433 3.5638 29.3738 3.32302 29.0545 3.16928L22.8537 0.185457C22.5033 0.0168548 22.1092 -0.0386586 21.7258 0.0266004C21.3425 0.0918593 20.989 0.274663 20.7141 0.549709L8.8432 11.3798L3.67233 7.45479C3.43908 7.27773 3.15121 7.18792 2.85867 7.20093C2.56612 7.21394 2.28736 7.32895 2.07075 7.52601L0.412368 9.03463C-0.134483 9.53199 -0.135073 10.3923 0.410951 10.8905L4.89524 14.9816L0.410951 19.0726C-0.135073 19.5709 -0.134483 20.4311 0.412368 20.9286L2.07075 22.4371C2.28735 22.6341 2.5661 22.7492 2.85865 22.7622C3.15119 22.7752 3.43907 22.6854 3.67233 22.5084L8.8432 18.5833L20.7141 29.4134C20.8976 29.5972 21.1174 29.7408 21.3595 29.8351V29.8351ZM22.5954 8.14432L13.588 14.9816L22.5954 21.8188V8.14432V8.14432Z" fill="url(#paint0_linear_105_69)" fill-opacity="0.25"/>
</g>
</mask>
<g mask="url(#mask3_105_69)">
<path id="Vector_8" d="M21.3595 29.8352C21.5991 29.9287 21.8554 29.9718 22.1125 29.9619C22.3695 29.952 22.6218 29.8894 22.8535 29.7778L29.0543 26.794C29.3737 26.6403 29.6432 26.3995 29.8318 26.0994C30.0204 25.7993 30.1204 25.452 30.1204 25.0976V4.86577C30.1204 4.51134 30.0204 4.16409 29.8318 3.86399C29.6433 3.56388 29.3738 3.3231 29.0545 3.16936L22.8534 0.185418C22.5031 0.0168436 22.109 -0.0386551 21.7257 0.0266032C21.3424 0.0918616 20.9888 0.27465 20.714 0.54967L8.8432 11.3799L3.67233 7.45487C3.43908 7.27781 3.15121 7.188 2.85867 7.20101C2.56612 7.21402 2.28736 7.32903 2.07075 7.52609L0.412368 9.03471C-0.134483 9.53207 -0.135073 10.3924 0.410951 10.8906L4.89524 14.9817L0.410951 19.0727C-0.135073 19.571 -0.134483 20.4312 0.412368 20.9286L2.07075 22.4372C2.28735 22.6342 2.5661 22.7493 2.85865 22.7623C3.15119 22.7753 3.43907 22.6855 3.67233 22.5085L8.8432 18.5833L20.714 29.4135C20.8976 29.5973 21.1174 29.7409 21.3595 29.8352ZM22.5954 8.14428L13.588 14.9817L22.5954 21.8188V8.14428Z" fill="url(#paint1_linear_105_69)" fill-opacity="0.25"/>
</g>
</g>
</g>
<defs>
<linearGradient id="paint0_linear_105_69" x1="1505.93" y1="0" x2="1505.93" y2="2996.32" gradientUnits="userSpaceOnUse">
<stop stop-color="white"/>
<stop offset="1" stop-color="white" stop-opacity="0"/>
</linearGradient>
<linearGradient id="paint1_linear_105_69" x1="1505.93" y1="0" x2="1505.93" y2="2996.33" gradientUnits="userSpaceOnUse">
<stop stop-color="white"/>
<stop offset="1" stop-color="white" stop-opacity="0"/>
</linearGradient>
<clipPath id="clip0_105_69">
<rect width="30.24" height="30" fill="white"/>
</clipPath>
</defs>
</svg>
