<svg width="30" height="30" viewBox="0 0 30 30" fill="none" xmlns="http://www.w3.org/2000/svg">
<g id="vk">
<path id="Vector" d="M18.8412 2.5H11.1713C4.16625 2.5 2.5 4.16625 2.5 11.1588V18.8287C2.5 25.8325 4.15375 27.5 11.1588 27.5H18.8287C25.8325 27.5 27.5 25.8463 27.5 18.8412V11.1713C27.5 4.16625 25.8463 2.5 18.8412 2.5ZM22.6825 20.3375H20.8588C20.1688 20.3375 19.9613 19.7788 18.7238 18.5413C17.6438 17.5 17.1875 17.37 16.9138 17.37C16.5363 17.37 16.4325 17.4737 16.4325 17.995V19.635C16.4325 20.0788 16.2888 20.3387 15.13 20.3387C14.0054 20.2632 12.9149 19.9215 11.9482 19.3419C10.9816 18.7623 10.1665 17.9613 9.57 17.005C8.15396 15.2425 7.16868 13.1739 6.6925 10.9637C6.6925 10.69 6.79625 10.4425 7.3175 10.4425H9.14C9.60875 10.4425 9.7775 10.6513 9.96125 11.1325C10.8462 13.7375 12.3562 16.0025 12.9688 16.0025C13.2037 16.0025 13.3063 15.8988 13.3063 15.3125V12.63C13.2288 11.4063 12.5787 11.3025 12.5787 10.86C12.5871 10.7433 12.6406 10.6344 12.7279 10.5565C12.8151 10.4785 12.9293 10.4377 13.0463 10.4425H15.9113C16.3025 10.4425 16.4325 10.6375 16.4325 11.1063V14.7263C16.4325 15.1175 16.6013 15.2475 16.7188 15.2475C16.9537 15.2475 17.135 15.1175 17.565 14.6875C18.4886 13.5612 19.2432 12.3063 19.805 10.9625C19.8624 10.8011 19.9711 10.6629 20.1144 10.569C20.2577 10.4751 20.4278 10.4307 20.5988 10.4425H22.4225C22.9687 10.4425 23.085 10.7163 22.9688 11.1063C22.3056 12.5918 21.4851 14.0019 20.5212 15.3125C20.325 15.6125 20.2462 15.7687 20.5212 16.12C20.7025 16.3937 21.3412 16.9275 21.7712 17.435C22.3961 18.0583 22.915 18.7795 23.3075 19.57C23.4637 20.0775 23.2025 20.3375 22.6825 20.3375Z" fill="white"/>
</g>
</svg>
