<svg width="26" height="25" viewBox="0 0 26 25" fill="none" xmlns="http://www.w3.org/2000/svg">
<path d="M23.5769 4.80769H18.7692V3.84615C18.7692 3.0811 18.4653 2.34739 17.9243 1.80642C17.3834 1.26545 16.6497 0.961533 15.8846 0.961533H10.1154C9.35034 0.961533 8.61662 1.26545 8.07565 1.80642C7.53468 2.34739 7.23077 3.0811 7.23077 3.84615V4.80769H2.42308C1.91305 4.80769 1.4239 5.0103 1.06326 5.37094C0.702609 5.73159 0.5 6.22073 0.5 6.73076V22.1154C0.5 22.6254 0.702609 23.1146 1.06326 23.4752C1.4239 23.8358 1.91305 24.0385 2.42308 24.0385H23.5769C24.087 24.0385 24.5761 23.8358 24.9367 23.4752C25.2974 23.1146 25.5 22.6254 25.5 22.1154V6.73076C25.5 6.22073 25.2974 5.73159 24.9367 5.37094C24.5761 5.0103 24.087 4.80769 23.5769 4.80769ZM9.15385 3.84615C9.15385 3.59113 9.25515 3.34656 9.43547 3.16624C9.6158 2.98591 9.86037 2.88461 10.1154 2.88461H15.8846C16.1396 2.88461 16.3842 2.98591 16.5645 3.16624C16.7449 3.34656 16.8462 3.59113 16.8462 3.84615V4.80769H9.15385V3.84615ZM16.8462 6.73076V22.1154H9.15385V6.73076H16.8462ZM2.42308 6.73076H7.23077V22.1154H2.42308V6.73076ZM23.5769 22.1154H18.7692V6.73076H23.5769V22.1154Z" fill="white"/>
</svg>
